# vtk DataFile Version 2.0
mesh, Created by Gmsh 4.15.2 
ASCII
DATASET UNSTRUCTURED_GRID
POINTS 1126 double
0 6e-05 0
-5.91073488120188e-17 4.998277129465497e-06 0
1.8e-05 6e-05 0
1.799999999994089e-05 4.998277129465498e-06 0
8.999999999881333e-06 2.010090190041049e-06 0
0 5.604185255483485e-05 0
0 5.208370510966969e-05 0
0 4.812555766450454e-05 0
0 4.41674102193394e-05 0
0 4.020926277417425e-05 0
0 3.62511153290091e-05 0
0 3.229296788384396e-05 0
0 2.833482043867881e-05 0
0 2.437667299351363e-05 0
0 2.041852554834845e-05 0
0 1.646798188690228e-05 0
0 1.319417375334808e-05 0
0 1.086047334094189e-05 0
0 9.196199126863535e-06 0
0 8.009325237595723e-06 0
0 7.162908310337667e-06 0
0 6.559287651383218e-06 0
0 6.128816741995161e-06 0
0 5.821827231798982e-06 0
0 5.602898208016602e-06 0
0 5.443568717046576e-06 0
0 5.29513818785288e-06 0
0 5.146707658659191e-06 0
1.44e-05 6e-05 0
1.08e-05 6e-05 0
7.199999999999999e-06 6e-05 0
3.599999999999999e-06 6e-05 0
1.8e-05 5.146707658658906e-06 0
1.8e-05 5.295138187852313e-06 0
1.8e-05 5.443568717045722e-06 0
1.8e-05 5.602898208016865e-06 0
1.8e-05 5.821827231801694e-06 0
1.8e-05 6.128816742001093e-06 0
1.8e-05 6.559287651393417e-06 0
1.8e-05 7.162908310353505e-06 0
1.8e-05 8.009325237618972e-06 0
1.8e-05 9.196199126896373e-06 0
1.8e-05 1.086047334098719e-05 0
1.8e-05 1.319417375340932e-05 0
1.8e-05 1.646798188698311e-05 0
1.8e-05 2.041852554842462e-05 0
1.8e-05 2.437667299358216e-05 0
1.8e-05 2.833482043873971e-05 0
1.8e-05 3.229296788389725e-05 0
1.8e-05 3.625111532905479e-05 0
1.8e-05 4.020926277421232e-05 0
1.8e-05 4.416741021936985e-05 0
1.8e-05 4.81255576645274e-05 0
1.8e-05 5.208370510968492e-05 0
1.8e-05 5.604185255484247e-05 0
9.119384411366942e-06 2.098275015515075e-06 0
9.239632825858612e-06 2.185278003749578e-06 0
9.360733544346115e-06 2.271090690057073e-06 0
9.482674784831683e-06 2.355704725644165e-06 0
9.605444683542449e-06 2.439111878335297e-06 0
9.729031296084625e-06 2.52130403337362e-06 0
9.853422598605602e-06 2.602273194210496e-06 0
9.978606488963773e-06 2.682011483283507e-06 0
1.010457078790591e-05 2.760511142782826e-06 0
1.023130324025217e-05 2.837764535406038e-06 0
1.035879151608837e-05 2.913764145101141e-06 0
1.048702321196555e-05 2.988502577797803e-06 0
1.061598585210681e-05 3.061972562126741e-06 0
1.074566688962094e-05 3.134166950127136e-06 0
1.087605370772327e-05 3.205078717942101e-06 0
1.100713362096308e-05 3.274700966502012e-06 0
1.113889387645781e-05 3.343026922195737e-06 0
1.127132165513376e-05 3.410049937529629e-06 0
1.140440407297333e-05 3.475763491774295e-06 0
1.153812818226849e-05 3.540161191598978e-06 0
1.167248097288045e-05 3.60323677169359e-06 0
1.180744937350548e-05 3.664984095378254e-06 0
1.194302025294655e-05 3.725397155200346e-06 0
1.207918042139098e-05 3.784470073518982e-06 0
1.221591663169358e-05 3.842197103076847e-06 0
1.235321558066558e-05 3.898572627559355e-06 0
1.249106391036884e-05 3.953591162141062e-06 0
1.262944820941545e-05 4.007247354019282e-06 0
1.276835501427259e-05 4.059535982934891e-06 0
1.290777081057237e-05 4.110451961680183e-06 0
1.304768203442667e-05 4.159990336593826e-06 0
1.318807507374679e-05 4.208146288042809e-06 0
1.332893626956773e-05 4.25491513089132e-06 0
1.347025191737716e-05 4.300292314956616e-06 0
1.361200826844869e-05 4.344273425451671e-06 0
1.375419153117952e-05 4.386854183414718e-06 0
1.389678787243224e-05 4.428030446125546e-06 0
1.403978341888066e-05 4.46779820750855e-06 0
1.418316425835952e-05 4.506153598522478e-06 0
1.432691644121809e-05 4.543092887536871e-06 0
1.447102598167731e-05 4.578612480695096e-06 0
1.461547885919047e-05 4.612708922264017e-06 0
1.476026101980729e-05 4.645378894970188e-06 0
1.490535837754122e-05 4.676619220322599e-06 0
1.505075681573994e-05 4.706426858921923e-06 0
1.519644218845871e-05 4.734798910756205e-06 0
1.534240032183668e-05 4.761732615483028e-06 0
1.548861701547589e-05 4.787225352698052e-06 0
1.563507804382278e-05 4.811274642189958e-06 0
1.578176915755227e-05 4.833878144181758e-06 0
1.592867608495408e-05 4.855033659558429e-06 0
1.607578453332121e-05 4.874739130080868e-06 0
1.62230801903405e-05 4.892992638586137e-06 0
1.637054872548508e-05 4.909792409173981e-06 0
1.651817579140865e-05 4.925136807379632e-06 0
1.666594702534127e-05 4.939024340332788e-06 0
1.681384805048678e-05 4.951453656902892e-06 0
1.696186447742153e-05 4.962423547830562e-06 0
1.71099819054943e-05 4.971932945845253e-06 0
1.72581859242274e-05 4.97998092576908e-06 0
1.740646211471863e-05 4.986566704606847e-06 0
1.755479605104418e-05 4.991689641622211e-06 0
1.770317330166206e-05 4.995349238400027e-06 0
1.785157943081618e-05 4.997545138894834e-06 0
1.484205690644611e-07 4.997545138896009e-06 0
2.96826698217506e-07 4.995349238402404e-06 0
4.452039488342932e-07 4.991689641625809e-06 0
5.935378851587684e-07 4.986566704611687e-06 0
7.41814075648964e-07 4.979980925775183e-06 0
8.900180943810161e-07 4.97193294585264e-06 0
1.038135522452756e-06 4.962423547839256e-06 0
1.1861519493865e-06 4.951453656912912e-06 0
1.334052974531013e-06 4.939024340344157e-06 0
1.481824208462645e-06 4.925136807392368e-06 0
1.62945127438525e-06 4.909792409188106e-06 0
1.776919809528877e-06 4.89299263860167e-06 0
1.924215466547217e-06 4.874739130097831e-06 0
2.071323914913429e-06 4.855033659576843e-06 0
2.21823084231433e-06 4.833878144201639e-06 0
2.364921956042934e-06 4.811274642211329e-06 0
2.511382984388959e-06 4.78722535272093e-06 0
2.657599678027297e-06 4.761732615507434e-06 0
2.803557811404427e-06 4.73479891078216e-06 0
2.949243184122382e-06 4.706426858949441e-06 0
3.094641622320289e-06 4.676619220351703e-06 0
3.239738980053433e-06 4.645378895000895e-06 0
3.384521140669484e-06 4.612708922296345e-06 0
3.528974018181887e-06 4.578612480729065e-06 0
3.673083558640373e-06 4.543092887572495e-06 0
3.816835741498245e-06 4.506153598559777e-06 0
3.960216580976407e-06 4.467798207547542e-06 0
4.103212127424137e-06 4.428030446166251e-06 0
4.245808468676202e-06 4.386854183457151e-06 0
4.387991731406415e-06 4.344273425495845e-06 0
4.52974808247733e-06 4.300292315002551e-06 0
4.671063730286163e-06 4.254915130939034e-06 0
4.811924926106539e-06 4.208146288092311e-06 0
4.952317965426094e-06 4.159990336645142e-06 0
5.092229189279866e-06 4.110451961733323e-06 0
5.231644985579152e-06 4.059535982989867e-06 0
5.370551790435804e-06 4.007247354076114e-06 0
5.508936089481947e-06 3.953591162199763e-06 0
5.646784419184766e-06 3.89857262761994e-06 0
5.784083368156346e-06 3.842197103139335e-06 0
5.920819578458569e-06 3.784470073583377e-06 0
6.056979746902617e-06 3.725397155266669e-06 0
6.192550626343341e-06 3.664984095446519e-06 0
6.327519026968044e-06 3.603236771763809e-06 0
6.461871817579705e-06 3.540161191671164e-06 0
6.595595926874584e-06 3.47576349184846e-06 0
6.728678344713917e-06 3.410049937605782e-06 0
6.861106123389638e-06 3.343026922273894e-06 0
6.992866378884151e-06 3.274700966582191e-06 0
7.123946292123792e-06 3.205078718024302e-06 0
7.254333110225967e-06 3.134166950211377e-06 0
7.384014147739972e-06 3.061972562213032e-06 0
7.512976787881125e-06 2.988502577886154e-06 0
7.641208483758237e-06 2.913764145191565e-06 0
7.768696759594393e-06 2.837764535498536e-06 0
7.895429211940628e-06 2.760511142877414e-06 0
8.021393510882767e-06 2.682011483380196e-06 0
8.146577401240967e-06 2.602273194309294e-06 0
8.270968703762e-06 2.521304033474535e-06 0
8.394555316304257e-06 2.439111878438341e-06 0
8.517325215015144e-06 2.355704725749335e-06 0
8.63926645550085e-06 2.271090690164385e-06 0
8.760367173988505e-06 2.185278003859049e-06 0
8.880615588480377e-06 2.098275015626697e-06 0
5.769963751247171e-06 3.998334285951684e-06 0
1.237754628485531e-05 4.058801804430607e-06 0
1.336983321757629e-05 4.405224000020229e-06 0
4.783461970490302e-06 4.356118657279478e-06 0
1.138971906185413e-05 3.623590821674647e-06 0
6.724990072055213e-06 3.566198682272294e-06 0
1.42219698062636e-05 4.650039300052292e-06 0
3.895536168056224e-06 4.6053322964726e-06 0
1.061821765959041e-05 3.210408810543873e-06 0
7.51239418216394e-06 3.137236819204049e-06 0
1.495302203958469e-05 4.820116873779078e-06 0
1.569066835772743e-05 4.950243675010425e-06 0
3.194318666533147e-06 4.786712882166822e-06 0
2.459050374360654e-06 4.926148348427638e-06 0
9.971497739994435e-06 2.835868347504649e-06 0
1.628226542980597e-05 5.029104021574146e-06 0
8.026600062707887e-06 2.83041585633735e-06 0
1.868864592950209e-06 5.019712828447864e-06 0
1.274804413033227e-06 5.071534007681759e-06 0
8.528172978745702e-06 2.503730153197496e-06 0
2.005404505087136e-06 1.173673096862447e-05 0
1.687698765934547e-05 5.09428890242302e-06 0
9.595591607569681e-06 2.587331532210021e-06 0
1.378954837250984e-05 4.533456467021803e-06 0
1.293735367904767e-05 4.241665873002464e-06 0
1.100912615830202e-05 3.416268205230116e-06 0
1.195706688084002e-05 3.869355257410518e-06 0
7.120578760417242e-06 3.355726059903603e-06 0
5.206247186898173e-06 4.206086881287985e-06 0
6.286699892275535e-06 3.749636838956397e-06 0
4.358294363413512e-06 4.497616505388018e-06 0
1.656424306244636e-05 9.800107583357893e-06 0
8.804407501965039e-07 8.602762182229629e-06 0
8.405619039254907e-07 5.110644264057244e-06 0
1.725039882294623e-05 7.60714521795492e-06 0
5.115425501600728e-07 6.780640581645365e-06 0
1.732404061185174e-05 5.111973773466639e-06 0
1.768067027117402e-05 6.344052196697237e-06 0
2.277294053732504e-07 5.975321986897044e-06 0
1.783620925851178e-05 5.712362719909259e-06 0
1.41282658472792e-07 5.519477677353556e-06 0
9.225875725632835e-06 2.333152510371109e-06 0
1.55718775736146e-05 1.483107782019622e-05 0
1.168694805213707e-05 3.751201471821385e-06 0
1.035831162805041e-05 3.062605227574206e-06 0
1.539350809525556e-05 4.901235082279797e-06 0
1.658194897231655e-05 5.069776313205907e-06 0
1.466057198014562e-05 4.75557847092654e-06 0
1.598665071850464e-05 4.993378247053183e-06 0
3.647396187558443e-06 4.678789552266508e-06 0
7.771255636892255e-06 2.986273482280779e-06 0
8.279184359895048e-06 2.669812339518756e-06 0
2.901393998613424e-06 4.84703948488871e-06 0
2.164766924909817e-06 4.973363096690974e-06 0
1.572041909378157e-06 5.058114411895222e-06 0
5.236819116806832e-07 5.112653447680474e-06 0
1.764128661837137e-05 5.127184528382937e-06 0
8.793231137282217e-06 2.306644854245097e-06 0
8.962697008452543e-06 5.66257581702803e-05 0
3.605337606332185e-06 2.182014093767581e-05 0
1.457214376056911e-05 4.614648394194862e-05 0
1.456233620071785e-05 3.822365133195148e-05 0
1.466221551963284e-05 3.048198582922345e-05 0
3.427856239437489e-06 4.218833649675682e-05 0
3.143408274631081e-06 3.422671276683752e-05 0
1.450968689807438e-05 2.230251561578471e-05 0
1.787000313514183e-05 5.370809861865318e-06 0
3.437663799286963e-06 5.009809366740624e-05 0
2.22969611595926e-07 5.122338018552712e-06 0
1.491646306673968e-05 5.437603574341452e-05 0
1.570125178131549e-07 5.708146767149971e-06 0
2.990205459382282e-07 5.599025473815323e-06 0
2.803049657927879e-07 5.424741634683828e-06 0
4.380984401883754e-07 5.492887718458883e-06 0
4.596016704403921e-07 5.63671604419392e-06 0
6.041150543597311e-07 5.554524506809721e-06 0
6.360586909724857e-07 5.74436972337907e-06 0
7.840837984003575e-07 5.634319171480173e-06 0
8.388587919741131e-07 5.845180176710092e-06 0
9.958743381086124e-07 5.67275376276237e-06 0
1.108840700444046e-06 5.903971648584007e-06 0
1.005902440118296e-06 5.470498672487113e-06 0
1.169961559092949e-06 5.542348535845478e-06 0
1.141731147638076e-06 5.375560957814262e-06 0
1.304577506505661e-06 5.426838187604998e-06 0
1.345967557343207e-06 5.60512965062698e-06 0
1.46711905788812e-06 5.468914992624381e-06 0
1.525116809257624e-06 5.651681863372098e-06 0
1.418570246431925e-06 5.318660399837692e-06 0
1.57233865596164e-06 5.343421167318258e-06 0
5.576606128036958e-07 5.374382690007192e-06 0
9.947482878568428e-07 5.313861928996673e-06 0
8.435456455297885e-07 5.366457525651658e-06 0
5.410613362093714e-07 6.030207295075644e-06 0
1.119396798304472e-06 5.230938536808928e-06 0
4.00574801240667e-07 5.356240259303007e-06 0
1.26154398994287e-06 5.287511601745274e-06 0
1.777894250128795e-05 5.975321986901398e-06 0
1.741788115511021e-05 6.060483978196129e-06 0
1.727199152251694e-05 6.485063297083764e-06 0
1.699298922577653e-05 6.091615394885234e-06 0
1.707375188722415e-05 5.835098423139797e-06 0
1.666640017477326e-05 5.933676113245464e-06 0
1.656543020917902e-05 6.245279129159062e-06 0
1.635590794910236e-05 5.917295112549284e-06 0
1.615645325768703e-05 6.292701164479227e-06 0
1.597066829351176e-05 5.941710621151742e-06 0
1.571912468386892e-05 6.334996851835826e-06 0
1.556109886973825e-05 5.935874144803973e-06 0
1.524062628711234e-05 6.336875128307157e-06 0
1.485422801977839e-05 5.922500001089077e-06 0
1.46938325129251e-05 6.490904257292892e-06 0
1.43359293716053e-05 6.042109195648035e-06 0
1.410399755772109e-05 6.616804879969127e-06 0
1.370665075022787e-05 6.117328332211607e-06 0
1.34535521749651e-05 6.718050551630321e-06 0
1.301252116495778e-05 6.108606239294923e-06 0
1.270382834746744e-05 6.955711827282411e-06 0
1.21996838622788e-05 6.342350490096257e-06 0
1.177652784691775e-05 7.055221740939947e-06 0
1.115841823657967e-05 6.247534403187998e-06 0
1.069957974135166e-05 7.262011293709975e-06 0
9.932113856042428e-06 6.143862794447184e-06 0
9.406281733228192e-06 7.593691363026487e-06 0
1.238114281380165e-05 8.153744696498201e-06 0
8.734364230707772e-06 6.442214214256875e-06 0
1.556317778754467e-05 6.88707282070221e-06 0
7.89772089401433e-06 7.666336845594167e-06 0
8.977867298447767e-06 9.28576222993218e-06 0
9.029248138258741e-06 5.247834101363369e-06 0
6.901438763869403e-06 6.963068929193751e-06 0
6.366616713041417e-06 7.935366261776497e-06 0
5.488940537881843e-06 7.239399024186993e-06 0
4.990772343397627e-06 8.346183505166809e-06 0
4.1986653436074e-06 7.519226048497995e-06 0
5.657328354410759e-06 9.802467626988054e-06 0
1.157584319766414e-05 5.430091266594922e-06 0
5.923800809569906e-06 5.894426030074047e-06 0
1.324745369336496e-05 5.58947741235212e-06 0
1.455092908533497e-05 7.181806475868754e-06 0
1.459838340322358e-05 5.645717819979541e-06 0
1.604686554878538e-05 5.617979776284048e-06 0
1.677735060886417e-05 5.584141689300015e-06 0
3.517182959530879e-06 8.217517079191984e-06 0
2.742422697738853e-06 7.431158742949616e-06 0
3.428990556639712e-06 6.31395780532391e-06 0
7.846575490485757e-06 5.343170632548939e-06 0
8.419190479124852e-06 4.506249256708058e-06 0
1.645247033922399e-05 6.701245748087477e-06 0
1.526978108446372e-05 7.684624224001912e-06 0
1.389703780507609e-05 5.524237950180284e-06 0
1.640524689467836e-05 5.596705759494546e-06 0
1.420233209142945e-05 8.156057952973307e-06 0
4.525879030046195e-06 6.198930723783251e-06 0
1.241527339841642e-05 5.449962366981564e-06 0
1.509797729173723e-05 5.598718906951235e-06 0
1.742131000996742e-05 5.713488063999779e-06 0
1.559878993403898e-05 5.626893842442889e-06 0
1.035928782152539e-05 5.248658043353174e-06 0
1.62262032255639e-05 7.275572211557082e-06 0
2.089957310883865e-06 8.467989871202661e-06 0
3.446029455400225e-06 9.717633241969764e-06 0
4.790708166849159e-06 1.180983181402181e-05 0
3.041965249234129e-06 1.476515955620073e-05 0
6.731609383853856e-06 1.44294671483094e-05 0
5.430436221109868e-06 1.792168308121901e-05 0
9.101664169442432e-06 1.72090434694112e-05 0
1.03089328472638e-05 1.376014135826142e-05 0
7.851367843723214e-06 2.093112423985764e-05 0
6.814170111088886e-06 2.481216513307104e-05 0
2.714126800401526e-07 6.285812251475381e-06 0
1.50430727710721e-06 5.204930411387592e-06 0
1.652666603313464e-06 5.207154213687314e-06 0
1.730645354203967e-06 5.342108018060724e-06 0
1.720847203098036e-06 5.055503255618349e-06 0
1.826296600104654e-06 5.193282869924857e-06 0
1.888413833023096e-06 5.342838352050894e-06 0
1.813169115148458e-06 5.488897974042041e-06 0
1.986505730560575e-06 5.476498439382487e-06 0
2.041660666538286e-06 5.326886436684803e-06 0
1.972790572598508e-06 5.130354111861968e-06 0
9.877078246482143e-07 5.173505249882479e-06 0
6.459595702285972e-07 7.584052333207145e-06 0
1.113888153452599e-06 7.12717414329809e-06 0
1.285446089789055e-07 5.369353452449979e-06 0
1.714344171902361e-05 8.602762182257663e-06 0
1.068934727321331e-05 2.366635646401964e-05 0
9.621370345403184e-06 2.740183421718383e-05 0
6.196836377679529e-06 2.87004139408984e-05 0
9.069540054651306e-06 3.069382097978144e-05 0
1.520369551729283e-05 9.026479762859348e-06 0
1.383732430878314e-05 9.63235290328997e-06 0
1.233304842418432e-05 9.65254715314119e-06 0
1.319981074707347e-05 1.145546115405795e-05 0
1.240368928192366e-06 9.798234853155088e-06 0
1.56812253609768e-05 1.210177167478444e-05 0
2.833699158797224e-07 5.26300832603325e-06 0
1.422657654802416e-06 5.071738058430086e-06 0
1.786208069320002e-05 5.52828314999378e-06 0
1.773585935179006e-05 5.444018316076653e-06 0
1.772899497527862e-05 5.271153951063178e-06 0
1.760857741117146e-05 5.363062675775095e-06 0
1.761108679045315e-05 5.532190094994268e-06 0
1.747226219794725e-05 5.432631186776997e-06 0
1.747850604004041e-05 5.28860962028651e-06 0
1.734843682664047e-05 5.355089563675285e-06 0
1.735441081598584e-05 5.51066715860873e-06 0
1.721458391853394e-05 5.418730650019221e-06 0
1.723402345186873e-05 5.245949939350889e-06 0
1.708666455540455e-05 5.325867660935606e-06 0
1.707701339814794e-05 5.477648153646648e-06 0
1.709535481105393e-05 5.194482065387701e-06 0
1.697022449846426e-05 5.387642476582248e-06 0
1.720167380957247e-05 5.568857620081856e-06 0
1.451435564720222e-05 4.721588411283722e-06 0
1.455941344525503e-05 4.865723959786988e-06 0
1.44123546508173e-05 4.831766319598762e-06 0
1.445700462852388e-05 4.975285910677643e-06 0
1.430936534606304e-05 4.941310156039922e-06 0
1.460317562842196e-05 5.008184498991992e-06 0
1.435827662053587e-05 5.090577453008459e-06 0
1.420564242185349e-05 5.054598966461434e-06 0
1.415897631918462e-05 4.906449185730803e-06 0
1.40538838233135e-05 5.020087268913046e-06 0
1.400735835231376e-05 4.87132143114372e-06 0
1.390188317638045e-05 4.98516810399839e-06 0
1.385659411572455e-05 4.834154036043548e-06 0
1.374898775910334e-05 4.950751894374882e-06 0
1.370030932094084e-05 4.799797238265441e-06 0
1.359398554874162e-05 4.916531002716856e-06 0
1.354392559533476e-05 4.764636730685962e-06 0
1.343693102577184e-05 4.883439695144756e-06 0
1.338887204568304e-05 4.726138254860568e-06 0
1.327805227499215e-05 4.849461906109567e-06 0
1.322317295788783e-05 4.692983037187363e-06 0
1.311459270328137e-05 4.81797135339514e-06 0
1.305722359141256e-05 4.658702586329276e-06 0
1.294778530882937e-05 4.786007586833727e-06 0
1.289985600191333e-05 4.630963216081699e-06 0
1.266350003454843e-05 4.149218035998778e-06 0
1.277970741879596e-05 4.751483440049774e-06 0
1.27329373068246e-05 4.570718424477469e-06 0
1.260152984770674e-05 4.722756743410387e-06 0
1.253214941643363e-05 4.546781932036024e-06 0
1.240963467409223e-05 4.693440807792124e-06 0
1.2342157163026e-05 4.524371224704011e-06 0
1.220530189813968e-05 4.674940152447398e-06 0
1.214706938534383e-05 4.46076417922662e-06 0
1.19879533534523e-05 4.639605801879527e-06 0
1.190980508355446e-05 4.392977673669539e-06 0
1.174954899592048e-05 4.596612015531446e-06 0
1.169180349517703e-05 4.369979883575791e-06 0
1.149438728194625e-05 4.530407030668741e-06 0
1.133060589782164e-05 4.348485467953936e-06 0
1.299531541968175e-05 4.985808162556211e-06 0
1.207260334050824e-05 4.275733369318604e-06 0
1.120260046313389e-05 4.533603256265154e-06 0
1.114348003710242e-05 4.219681957244149e-06 0
1.127471220829051e-05 4.065516403936135e-06 0
1.102090248629293e-05 3.9928328379786e-06 0
1.08557462617308e-05 4.171045997983923e-06 0
1.084316045857084e-05 3.931426882708978e-06 0
1.060574202831166e-05 4.083401478920128e-06 0
1.054785580637185e-05 3.856983486320732e-06 0
1.036385641628827e-05 3.951430020604733e-06 0
1.029018994329231e-05 3.747966501299186e-06 0
1.00975390118565e-05 3.9062028056329e-06 0
9.957441686098682e-06 3.670101505582569e-06 0
9.772423748592993e-06 3.839836729965e-06 0
9.752758670730369e-06 3.544429921140557e-06 0
9.469675967320494e-06 3.730283800156711e-06 0
9.488524481935434e-06 3.414053162134605e-06 0
9.138786187289747e-06 3.583503897485708e-06 0
8.980084279221889e-06 3.175924094407369e-06 0
8.716908276252265e-06 3.44407141931802e-06 0
9.924724510348005e-06 3.335897895338841e-06 0
8.709261128738215e-06 3.172431249660171e-06 0
8.457793202987854e-06 3.409493634469585e-06 0
8.929725765617164e-06 2.949460057569604e-06 0
9.834805345178753e-06 4.248401911033267e-06 0
8.400478883227177e-06 3.097017518112718e-06 0
8.67191632949699e-06 2.874385431556256e-06 0
1.100317623472813e-05 3.808765782506812e-06 0
1.051360492627661e-05 3.567239337626163e-06 0
1.42399895849794e-05 5.21935730157685e-06 0
1.246011648817049e-05 4.394032789481127e-06 0
1.364082666773945e-05 5.07443364348144e-06 0
1.349559861713122e-05 4.618624917673749e-06 0
1.301217391157424e-05 4.516586814921615e-06 0
1.396335005157879e-05 4.724817304366645e-06 0
9.189033623225346e-06 4.042241288218196e-06 0
9.19973691635609e-06 3.053613971935727e-06 0
9.128111622286461e-06 2.788315065720832e-06 0
1.206524841580096e-05 4.918791599746869e-06 0
1.15096885814234e-05 4.109593337995389e-06 0
1.222885151179932e-05 4.300036162978011e-06 0
1.217357999529762e-05 4.162056583640248e-06 0
1.202785683709409e-05 4.118303138594698e-06 0
1.023068330637862e-05 3.46401305591679e-06 0
1.332041441443911e-05 5.036166282472784e-06 0
1.075202987045644e-05 3.694016125244483e-06 0
9.637587301095783e-06 3.19967342304663e-06 0
1.065472975041587e-05 4.454068735924872e-06 0
8.440170242671054e-06 3.669525877949197e-06 0
8.190845411344637e-06 3.604792321455398e-06 0
1.265718791161232e-05 4.925884640646101e-06 0
1.263077648864018e-05 4.414993214386944e-06 0
1.276514690673371e-05 4.422385827537433e-06 0
8.153406669305652e-06 3.273939385968878e-06 0
1.446146262670781e-05 5.2513973973331e-06 0
1.428730667757173e-05 5.423099579524465e-06 0
1.114912390093411e-05 3.858101022425169e-06 0
1.112288937485932e-05 3.710109975165324e-06 0
1.099193868830364e-05 3.655849513928585e-06 0
1.393393714278561e-05 5.148858362181028e-06 0
1.280052818543193e-05 5.176071146381829e-06 0
8.188411834799097e-06 3.901784839524048e-06 0
7.903352443447474e-06 3.814363471197511e-06 0
7.909550496300812e-06 4.112282874496624e-06 0
7.611436497658283e-06 4.016987858708148e-06 0
7.568373621189767e-06 3.667803119205729e-06 0
7.593612122332732e-06 4.301749840788374e-06 0
7.297057833092564e-06 4.211521452472745e-06 0
7.296188606105395e-06 4.560762053559575e-06 0
6.987357681882818e-06 4.436319168162964e-06 0
6.927504806754751e-06 4.73200813445081e-06 0
6.631015402246193e-06 4.660408172343265e-06 0
6.615531103107555e-06 4.263572846909932e-06 0
6.640147291540295e-06 5.027240365819497e-06 0
6.196039589529294e-06 4.881827797041329e-06 0
6.951898187199407e-06 4.045772649814757e-06 0
7.891663322570771e-06 3.480189451277563e-06 0
7.284211709550049e-06 3.832481026982325e-06 0
6.234898153279233e-06 4.466469008377126e-06 0
5.940581300748609e-06 4.717138226045124e-06 0
6.040039537384797e-06 3.868456033423786e-06 0
5.954296276399786e-06 4.366895341594463e-06 0
5.486673313277533e-06 4.10044423136442e-06 0
5.901158564622198e-06 5.009402820992178e-06 0
5.651905249383718e-06 4.875054127506639e-06 0
5.577167861866996e-06 5.142605995373049e-06 0
5.318706267110242e-06 5.026918932014279e-06 0
5.354297492305214e-06 4.68587403866426e-06 0
5.248846538145953e-06 5.303965792873325e-06 0
4.917028971432561e-06 5.182848395850486e-06 0
5.019699651567561e-06 4.808589810148399e-06 0
5.673334327031361e-06 4.532950461718217e-06 0
4.925263471582232e-06 5.521147377934597e-06 0
4.650367199742162e-06 5.255855982831382e-06 0
4.682698919838101e-06 4.925981702871427e-06 0
1.126965124872253e-05 3.752716282767627e-06 0
1.122034929882445e-05 3.61467878633018e-06 0
1.142567214292361e-05 3.787089463127935e-06 0
1.315793550132641e-05 4.538779357816594e-06 0
1.31114738283772e-05 4.415959544798453e-06 0
1.179786043588033e-05 4.21869199993185e-06 0
1.31216991350937e-05 5.215154866607856e-06 0
1.214034845115462e-05 4.016833259944829e-06 0
1.132474189357863e-05 4.868392153134382e-06 0
1.086952114868695e-05 4.806087174462657e-06 0
1.333673008690601e-05 4.581322483256657e-06 0
5.276698811500264e-06 5.780882520333229e-06 0
6.272739553229666e-06 5.375831100385156e-06 0
6.762453058200816e-06 5.589692951083216e-06 0
1.366194493287918e-05 4.626910569125729e-06 0
1.273039150502551e-05 4.295263566295286e-06 0
1.357490634461913e-05 4.491636154360711e-06 0
1.381519412369276e-05 4.684067609148594e-06 0
1.285817932365276e-05 5.574602254939703e-06 0
1.41159630357182e-05 4.760011090574194e-06 0
1.231702710157243e-05 4.187182718349408e-06 0
1.048793289690583e-05 3.137246369190274e-06 0
1.0489364826803e-05 3.286852656024279e-06 0
1.062007593311958e-05 3.360346908621219e-06 0
1.035885363902773e-05 3.21269268777002e-06 0
1.022873635230231e-05 3.137723109385186e-06 0
1.022945424603138e-05 3.291113109208577e-06 0
1.009281919642973e-05 3.225501488495459e-06 0
1.009817306004976e-05 3.064229495384695e-06 0
9.958434946252883e-06 3.15187029124285e-06 0
9.967719210049246e-06 2.989726208886762e-06 0
9.84646588900321e-06 3.064918535250932e-06 0
9.809532569911457e-06 3.211484686804567e-06 0
9.650584348585862e-06 3.006403711835864e-06 0
9.848518824790729e-06 2.91317917048508e-06 0
9.846881301267825e-06 2.756865034044502e-06 0
9.711459488250839e-06 2.850596479969073e-06 0
1.036222446186107e-05 3.368846499242456e-06 0
9.348337510883244e-06 2.419030803808118e-06 0
9.212685014941246e-06 2.48259976924718e-06 0
9.090021180216788e-06 2.396109611647526e-06 0
9.336013346859308e-06 2.568338657687485e-06 0
9.075336289974683e-06 2.542857410977694e-06 0
8.956879026671058e-06 2.465936343400243e-06 0
8.939428236839697e-06 2.606443159969721e-06 0
8.816047678257448e-06 2.530202373853384e-06 0
8.805901126598324e-06 2.670186703088448e-06 0
8.953394915745049e-06 2.31613166328068e-06 0
8.673997971078705e-06 2.586741646522785e-06 0
1.524660534709889e-05 4.875303193247652e-06 0
1.529793139501507e-05 5.016410698413023e-06 0
1.515032782653154e-05 4.990159180295123e-06 0
1.520183665173829e-05 5.131486021310351e-06 0
1.50540776802652e-05 5.105727813847126e-06 0
1.535068861283905e-05 5.157394508096138e-06 0
1.525380262101679e-05 5.2740534832699e-06 0
1.540375097015816e-05 5.30098290764635e-06 0
1.550134974158974e-05 5.182557587427638e-06 0
1.555578019705847e-05 5.324808978641686e-06 0
1.565329827780955e-05 5.208244696438522e-06 0
1.570797298497503e-05 5.349766954609999e-06 0
1.580582053304152e-05 5.23242660809681e-06 0
1.58600935659288e-05 5.377566970676828e-06 0
1.595876589157371e-05 5.258522115570843e-06 0
1.529111594916373e-05 5.450220180993572e-06 0
1.500291424233368e-05 4.963681230153379e-06 0
1.49051358569693e-05 5.079428171471962e-06 0
1.495676838344443e-05 5.222712497612252e-06 0
1.480005315509346e-05 5.198667448135508e-06 0
1.48561779049676e-05 5.334767931759927e-06 0
1.46734342203239e-05 5.370192123124187e-06 0
1.485424174249123e-05 4.934821252529981e-06 0
1.574805809105219e-05 5.091315976807757e-06 0
1.601012530048829e-05 5.414318660216699e-06 0
1.611038300220241e-05 5.284008544336688e-06 0
1.605518684159201e-05 5.140761543329531e-06 0
1.620259914449423e-05 5.161623507134158e-06 0
1.626059670857864e-05 5.303433813591085e-06 0
1.634994419359429e-05 5.180608334151849e-06 0
1.640919796529938e-05 5.323646610344244e-06 0
1.650064060038467e-05 5.204114745754198e-06 0
1.655848445091979e-05 5.346301410098306e-06 0
1.66492439621013e-05 5.226228456969871e-06 0
1.670311421194896e-05 5.357692816747402e-06 0
1.660961071123096e-05 5.50107549141526e-06 0
1.678933451436782e-05 5.227404106453367e-06 0
1.6168991765168e-05 5.421697012494994e-06 0
1.672836922656911e-05 5.090759440573718e-06 0
1.695075468299426e-05 5.234713324985212e-06 0
1.393297139659383e-05 4.572567942014801e-06 0
1.436848475197404e-05 4.686289571572025e-06 0
1.426451898500347e-05 4.795977603928006e-06 0
1.088080224380878e-05 3.35302472628637e-06 0
1.088407912796856e-05 3.494505530042189e-06 0
1.075555725781807e-05 3.427097441976112e-06 0
1.252295998280272e-05 4.100681696638169e-06 0
1.510001140995791e-05 4.848414374525566e-06 0
1.643392061883253e-05 5.053088771873289e-06 0
1.15466446995605e-05 3.690571045506397e-06 0
1.010041563729135e-05 2.912378692629564e-06 0
1.554198848890077e-05 4.92671973379751e-06 0
1.748170665961231e-05 5.139265685770523e-06 0
1.182247779118003e-05 3.812128209988209e-06 0
1.17033062229284e-05 3.900120311459142e-06 0
1.183819302774462e-05 3.953708951880126e-06 0
1.172197760445316e-05 4.059239999399785e-06 0
1.777867422798802e-05 5.122895035766215e-06 0
1.480672677687706e-05 4.788366337998503e-06 0
1.022928857233906e-05 2.98807753424681e-06 0
7.642397190368663e-06 3.062521174665465e-06 0
7.64183826085462e-06 3.21237528489397e-06 0
7.511172360701003e-06 3.28687163300117e-06 0
7.63688226732078e-06 3.362557309090403e-06 0
7.507025513791315e-06 3.43255195066603e-06 0
7.380063515337492e-06 3.359746715308042e-06 0
7.376677416012196e-06 3.505925127799265e-06 0
7.77072513695446e-06 3.282604371001927e-06 0
7.249491833575671e-06 3.433041155303235e-06 0
7.246940420948909e-06 3.580994704867841e-06 0
7.381582957366245e-06 3.670546196538458e-06 0
7.119285920052952e-06 3.5075875594319e-06 0
7.116664573199182e-06 3.655320418590374e-06 0
6.987855773510246e-06 3.579809150146989e-06 0
6.988055644018843e-06 3.732654176170391e-06 0
6.856791527291312e-06 3.651581951369089e-06 0
6.856604814930977e-06 3.804679755678503e-06 0
6.72480097556601e-06 3.723331695605693e-06 0
6.725745887531475e-06 3.878032028960226e-06 0
6.594813068147521e-06 3.7994478939938e-06 0
6.596479680414315e-06 3.954401198628904e-06 0
6.471239947238309e-06 3.885781040484923e-06 0
6.467145052646751e-06 4.03045537034406e-06 0
6.342136625190406e-06 3.962235312836288e-06 0
6.337120030408988e-06 4.105263163672239e-06 0
6.210630064145566e-06 4.034429661050529e-06 0
6.206579402593322e-06 4.179153239913043e-06 0
6.080003502066907e-06 4.108166784443412e-06 0
6.73807298395465e-06 4.028442585545781e-06 0
6.326254237693925e-06 4.269233940254703e-06 0
6.213905093707443e-06 3.888366276333788e-06 0
6.077402698364725e-06 4.254532200895086e-06 0
5.944397176249149e-06 4.196183125228924e-06 0
5.813227743297234e-06 4.304326143202599e-06 0
5.94705601486371e-06 4.025963013033544e-06 0
6.458822604236494e-06 3.726986510970042e-06 0
6.590991319402375e-06 3.636333104613029e-06 0
7.77363221919962e-06 3.135899277004137e-06 0
7.902565615295589e-06 3.058558324155582e-06 0
7.904223998035531e-06 3.201783945149917e-06 0
8.054744654005981e-06 3.142110714249608e-06 0
6.989545429399263e-06 3.427708607333929e-06 0
5.346896656833409e-06 4.154116348406293e-06 0
5.32133529902262e-06 4.301775360123974e-06 0
5.180068834701293e-06 4.353419037398087e-06 0
5.295847873754121e-06 4.445466733999623e-06 0
5.152864035437772e-06 4.497017668815173e-06 0
5.038835815826936e-06 4.403499209562548e-06 0
5.439325816411674e-06 4.392787860454646e-06 0
5.011632791509863e-06 4.548452512119279e-06 0
5.12411921359676e-06 4.660794093175733e-06 0
4.897818512800716e-06 4.45413264300954e-06 0
4.870615906613473e-06 4.599648775810365e-06 0
4.756894736295739e-06 4.50573435271839e-06 0
4.730784705389352e-06 4.654085165545253e-06 0
4.615407680909764e-06 4.55546225410528e-06 0
4.589665503701249e-06 4.70492335469409e-06 0
4.47399400789564e-06 4.603772138493914e-06 0
4.448752944302712e-06 4.756191617870557e-06 0
4.33196428187281e-06 4.652754944080878e-06 0
4.307726023531144e-06 4.807233832648563e-06 0
4.191149840365208e-06 4.706246752557137e-06 0
4.166776981193322e-06 4.858841090374808e-06 0
4.423118410836956e-06 4.903691396705395e-06 0
4.054785112129148e-06 4.770415186199653e-06 0
4.026582537473131e-06 4.912321959453465e-06 0
3.914716434845242e-06 4.824208323837107e-06 0
3.885896535347864e-06 4.964385881090172e-06 0
3.777770503271117e-06 4.869777102620731e-06 0
3.745649064439992e-06 5.014842918344231e-06 0
3.616457128830882e-06 4.915127623801419e-06 0
3.800487724520196e-06 4.721241093772006e-06 0
4.069033065883832e-06 4.611748762419424e-06 0
4.214496555853435e-06 4.544479607594232e-06 0
4.854926164260506e-06 4.742558507328767e-06 0
5.463192052638016e-06 4.247422276473888e-06 0
5.599849361625794e-06 4.1929679932641e-06 0
5.571135892504258e-06 4.333174923597939e-06 0
4.642283587951837e-06 4.405300385408204e-06 0
7.251684885780058e-06 3.283022737973175e-06 0
4.924609046963189e-06 4.306171471446626e-06 0
3.487864301426755e-06 4.715079410721398e-06 0
8.404482132719093e-06 2.587529572819252e-06 0
8.41281830344503e-06 2.737331860295176e-06 0
8.286824149337386e-06 2.81924819719404e-06 0
8.420425517062396e-06 2.88746211178606e-06 0
8.294603949343108e-06 2.969128382861577e-06 0
8.556803684900935e-06 3.006679514818781e-06 0
8.53997357077932e-06 2.658089245266e-06 0
8.688374674576838e-06 2.424195714944409e-06 0
8.160653745863889e-06 2.900381281518351e-06 0
8.169977306138717e-06 3.040651799912934e-06 0
2.607180761273649e-06 4.901618660661131e-06 0
2.555122179218867e-06 5.041874363073299e-06 0
2.406710312972583e-06 5.066430624949255e-06 0
2.502237635227531e-06 5.182240961501161e-06 0
2.354236910417279e-06 5.207139600063405e-06 0
2.444913696858202e-06 5.326793753202465e-06 0
2.259592326905736e-06 5.091079039667914e-06 0
2.183419523327889e-06 5.249986605762511e-06 0
2.754770635560102e-06 4.875600528393601e-06 0
2.851595723295047e-06 4.989153767550236e-06 0
2.650171038551641e-06 5.157683950882151e-06 0
2.998998785889866e-06 4.966072978349688e-06 0
2.946803377275176e-06 5.112671145683565e-06 0
3.340644700174606e-06 4.753683119089663e-06 0
3.288322231983566e-06 4.894985160710192e-06 0
3.145308842750144e-06 4.93623571607866e-06 0
3.23247864404351e-06 5.051455194056733e-06 0
6.741096029173646e-07 5.112726503558238e-06 0
7.558388649944819e-07 5.23821215505885e-06 0
3.706661233415226e-07 5.117409646175622e-06 0
9.471224640664671e-06 2.503827634775051e-06 0
9.459605984955228e-06 2.653103209886963e-06 0
9.313897122554237e-06 2.718919854366458e-06 0
9.443558321739389e-06 2.797072665596224e-06 0
9.583466039874141e-06 2.739948572901463e-06 0
9.104718176462162e-06 2.248252856324044e-06 0
1.074939561528017e-05 3.281687259249474e-06 0
2.312212122917677e-06 4.950362316024793e-06 0
1.61336243597571e-05 5.011427665179322e-06 0
9.186824749458713e-06 2.629677831730548e-06 0
5.808847941098956e-06 4.156264817116998e-06 0
5.065718006515926e-06 4.256603149678956e-06 0
8.153396576910975e-06 2.750651642327683e-06 0
8.035584628386299e-06 2.980168223096276e-06 0
7.382277033658072e-06 3.210502902985143e-06 0
3.448268235598689e-06 4.869256401653754e-06 0
2.702411439950861e-06 5.01669655949395e-06 0
1.40762003278991e-05 4.613564573839832e-06 0
6.858161211726598e-06 3.496395875167e-06 0
4.50128657567575e-06 4.4511195039823e-06 0
2.01809278202628e-06 4.994347697770725e-06 0
1.470648923112127e-05 4.900435162839039e-06 0
1.475340944796954e-05 5.048665659816174e-06 0
1.371665244157652e-05 2.642028082355368e-05 0
1.04944146047277e-05 3.436077984963016e-06 0
1.639120521531245e-06 5.492406586721581e-06 0
5.617427686710129e-06 4.045820652625529e-06 0
3.047317516704875e-06 4.81985119013084e-06 0
7.900021985802843e-06 2.908948594040991e-06 0
1.544576342358539e-05 5.042208244122501e-06 0
1.731861954035648e-06 5.669861005109789e-06 0
1.597705201042546e-06 5.894626024851568e-06 0
1.924893550174403e-06 5.862168179075354e-06 0
1.711809068356234e-06 6.224609474894432e-06 0
2.113177283953751e-06 6.209109336857979e-06 0
2.314706143690994e-06 5.831898817083247e-06 0
2.556091046873592e-06 6.161868901879871e-06 0
2.691803394424245e-06 5.808347269779281e-06 0
1.883457114004802e-06 6.598123957917275e-06 0
2.531782249969407e-06 5.62024895978839e-06 0
2.778255683525805e-06 5.526441938304817e-06 0
3.010088727687691e-06 5.712873228341506e-06 0
3.074692827594013e-06 5.418839380851786e-06 0
3.293738239458318e-06 5.611848629413294e-06 0
3.351898265204853e-06 5.32211852386092e-06 0
3.567329795196004e-06 5.52570127564959e-06 0
3.861471962218575e-06 5.116177886141408e-06 0
3.592796384335217e-06 5.090396905597663e-06 0
3.535501205181134e-06 5.859687391235145e-06 0
3.866557767965785e-06 5.70409805828992e-06 0
3.958582189441053e-06 6.085291489839319e-06 0
2.877091237350692e-06 5.302482968435306e-06 0
1.590204501368336e-05 5.117003289791825e-06 0
9.721002805054322e-06 2.66967255920596e-06 0
3.047868535021976e-06 5.410265787558726e-05 0
6.994283227432766e-06 5.281145337012642e-05 0
6.898065674934802e-06 4.822505556453293e-05 0
1.034921659085632e-05 5.007319327673466e-05 0
9.7787426942356e-06 4.626868641474989e-05 0
3.434707095125736e-06 4.615869675875844e-05 0
3.386520744619259e-06 3.822263424499351e-05 0
7.047446876585021e-06 4.026541861458775e-05 0
1.442307728077296e-05 5.020124460260275e-05 0
1.477604007694581e-05 4.217393603736047e-05 0
1.115588524764237e-05 4.024642554610708e-05 0
1.142533375764305e-05 3.623548458223304e-05 0
1.47804114897803e-05 3.429636214004287e-05 0
1.559777063282911e-05 5.067675956696796e-06 0
3.173143308121498e-06 5.227484181770556e-06 0
1.254395856443003e-05 4.264756937520389e-06 0
1.583964457057899e-05 4.973475498733898e-06 0
6.076327500455639e-07 5.231228681572974e-06 0
6.53004994564787e-06 3.622924459041724e-05 0
1.156686863496865e-05 3.841715975362208e-06 0
1.145727316908681e-05 3.937445025912415e-06 0
1.130720493236576e-05 3.919788270730243e-06 0
6.722321250355867e-06 4.435317255905883e-05 0
1.114703268949227e-05 3.489514695222379e-06 0
1.503221389559555e-05 1.842378553147434e-05 0
2.596476523802602e-06 5.297080200579285e-06 0
2.291148104648237e-06 5.351516766504707e-06 0
2.152057419375701e-06 5.425566269643484e-06 0
2.101738639301594e-06 5.625567339697514e-06 0
1.59131159228929e-05 5.52760065593478e-06 0
8.545696588485299e-06 2.815623643313721e-06 0
1.450625611558191e-05 5.09918053698795e-06 0
1.463296519901643e-05 5.162714610731486e-06 0
1.510552217445083e-05 5.247260200699805e-06 0
2.114413587993941e-06 5.117831318837467e-06 0
4.707320000014066e-06 4.797687398684071e-06 0
1.406188116259319e-05 5.344885593995281e-06 0
2.966085320038183e-06 6.060881014306179e-06 0
1.632261704807039e-05 5.44400859937723e-06 0
1.099094554810265e-05 5.399282206844367e-06 0
9.552102318583786e-06 2.889243884826307e-06 0
9.514181887502739e-06 3.046202475036714e-06 0
1.063038343734113e-05 3.499757055823953e-06 0
1.113018496955557e-06 5.088163347358222e-06 0
3.614054614351586e-06 5.274921676373793e-06 0
8.67270525803416e-06 2.735947822585412e-06 0
4.282094961679159e-06 4.956582080129354e-06 0
4.416426362445901e-06 5.088349914576673e-06 0
4.198935590356943e-06 5.146321918903404e-06 0
7.20887143254606e-07 5.45718163339217e-06 0
1.787651343964685e-05 5.222887582219604e-06 0
1.243495459446157e-07 5.220054082583312e-06 0
9.418862941138421e-06 4.568059625691778e-06 0
8.953628702412888e-06 2.772193141497421e-06 0
4.134911717301651e-06 4.986640778108355e-06 0
6.607516749822208e-06 4.108178137214352e-06 0
9.790428865991659e-07 6.54376566877439e-06 0
1.836640846838321e-06 7.248337105336845e-06 0
1.753819949385596e-05 6.865208677724626e-06 0
1.00953541935929e-05 3.359920660233749e-06 0
5.393739721196154e-06 5.681195926173094e-05 0
1.25676324525102e-05 5.700851911083226e-05 0
4.000168515805698e-06 5.059136841680718e-06 0
3.984718823717996e-06 5.236060106338233e-06 0
4.155272076058374e-06 5.459705856356213e-06 0
3.817115917280655e-06 5.409690397905995e-06 0
4.238113963965222e-06 5.798125587439937e-06 0
6.467060717271716e-06 4.191997084445656e-06 0
1.535917452272131e-05 5.649841487669055e-06 0
1.159348667497876e-05 3.989531588849561e-06 0
7.122884468000844e-06 3.798555229634282e-06 0
6.982277191586401e-06 3.883223596475553e-06 0
7.13999257296152e-06 3.985484307718336e-06 0
3.240846022157343e-06 2.639301793418318e-05 0
3.446528680576435e-06 5.143717039192587e-06 0
3.49162746021e-06 5.002645956838502e-06 0
1.366481461353718e-06 5.827133713194143e-06 0
1.34449874252354e-06 6.158267737389097e-06 0
1.165241577071076e-05 4.195153495702087e-06 0
1.136889493779408e-05 5.351603404566515e-05 0
3.718242069931772e-06 5.161691603232854e-06 0
6.185921342143225e-06 4.310790525505426e-06 0
1.036427352444476e-05 3.550380779212433e-06 0
1.321971521873878e-05 4.340919441627342e-06 0
9.289755793018519e-06 2.888258742836107e-06 0
2.72199872441455e-06 5.257991746629776e-06 0
2.793613142792493e-06 5.136900435064435e-06 0
4.867687130439972e-06 4.933276158389672e-06 0
7.689852566071579e-06 4.823433439791289e-06 0
1.159633843987944e-05 1.981415526725052e-05 0
2.340385914390889e-06 5.518049006810136e-06 0
8.98950050855668e-06 2.165585831460881e-06 0
7.618201252834819e-06 3.516711375908736e-06 0
1.345908000821797e-05 4.498514423334395e-06 0
3.022695770512142e-06 5.234314393117488e-06 0
1.062470963543153e-05 3.667061189616793e-06 0
5.827514152000723e-06 4.489213741704891e-06 0
1.505307774306438e-05 1.050287440448357e-05 0
1.546996350679461e-05 5.468983560949787e-06 0
1.700949516821752e-05 5.084608039036541e-06 0
1.719022753989342e-05 5.096237866357616e-06 0
8.805156932530782e-06 3.854817167914855e-06 0
1.280311639376857e-05 4.188864868258602e-06 0
1.198456400173234e-05 3.992182179685845e-06 0
1.29743895303805e-05 4.381078664224458e-06 0
9.972349897584758e-06 4.743068003956648e-06 0
1.086037895303204e-05 3.754505282476275e-06 0
1.075275965959198e-05 3.565467843446232e-06 0
3.0894820086689e-06 5.099691241984421e-06 0
2.887590227089301e-06 3.031760627961413e-05 0
1.57526646639389e-05 5.511918717870302e-06 0
1.250193651869114e-05 5.844714755541144e-06 0
1.237518725464775e-05 4.295645701158915e-06 0
1.409906682710504e-05 5.157557498625526e-06 0
5.892392450022119e-06 3.903884101826345e-06 0
1.408324603874384e-06 6.630184055685683e-06 0
1.695838133940861e-05 6.95485725058934e-06 0
8.80211541355974e-06 2.835806432903558e-06 0
5.550907515877158e-06 4.478577750999877e-06 0
5.558635057857924e-06 4.648045161433912e-06 0
5.422499328973167e-06 4.540674055494039e-06 0
9.455282979082265e-06 3.201765541480561e-06 0
1.188591260862103e-05 4.092203614280338e-06 0
6.485448880539484e-06 4.416293623457935e-06 0
3.302717758204187e-06 5.164294775174454e-06 0
1.515721837826607e-05 5.387740820257309e-06 0
1.500157542333173e-05 5.392522718946573e-06 0
1.773833895496109e-05 5.599204878883954e-06 0
1.763350426841477e-05 5.764416163241347e-06 0
1.378307559219433e-05 5.087403147135162e-06 0
1.371797048195424e-05 5.278587370326506e-06 0
1.344931688337842e-05 5.228065420741722e-06 0
1.22697477185879e-05 3.982598707511587e-06 0
4.564324591718909e-06 4.845089912113926e-06 0
1.646103141403978e-05 5.442347574145914e-06 0
1.660764247471921e-05 5.709045573562721e-06 0
1.169874761333488e-05 5.027110385721747e-06 0
1.203617104536373e-05 5.284656990915903e-06 0
9.056162828749303e-06 2.670508439237638e-06 0
2.546355146892079e-06 5.444751141751155e-06 0
8.826261325481169e-07 5.24648841510861e-06 0
1.911633797844135e-06 5.624598587461437e-06 0
4.557171202976348e-06 5.639955346519095e-06 0
2.333300601662025e-06 6.688240275374359e-06 0
1.028071225735996e-05 4.310075993478564e-06 0
8.026314149501118e-06 3.264783085608685e-06 0
8.875421864810565e-06 2.214383073694479e-06 0
3.5791576667056e-06 4.791653548694115e-06 0
1.349540630842935e-06 5.188146693994613e-06 0
4.546587858091832e-07 5.231188577396657e-06 0
1.43151887144121e-05 5.682015411279563e-06 0
1.09366101136841e-05 8.614476460551402e-06 0
1.348829490801409e-05 5.027727208911511e-06 0
1.194340564723471e-05 4.213304532955983e-06 0
1.244920075125099e-05 1.633901199357204e-05 0
7.722171618590637e-06 1.137187113945185e-05 0
1.737334271800273e-05 5.22817771650997e-06 0
1.207541527736231e-05 3.901007574727407e-06 0
2.366969489838403e-06 1.844325371762537e-05 0
1.3266266393059e-05 4.479965865914479e-06 0
1.049333067730239e-05 1.084605359187463e-05 0
1.061019136556253e-05 5.75983436195818e-06 0
1.684781314002934e-05 5.368072591961234e-06 0
4.385724333989222e-06 5.290787159250097e-06 0
1.759682979227843e-05 5.241083804718979e-06 0
8.070790562841462e-06 3.420656230962695e-06 0
6.850919813040582e-06 3.928030123294958e-06 0
6.817523688554956e-06 4.213857918893565e-06 0
1.307978156078627e-05 4.291293358048231e-06 0
1.042732017511459e-05 4.712391590235181e-06 0
1.092567840234137e-05 4.471489696271145e-06 0
6.098326842433685e-06 3.985076353657012e-06 0
7.770727204687106e-06 3.619793460330307e-06 0
6.133092271011065e-06 3.24130249855485e-05 0
1.329038386321668e-05 7.662523848240833e-06 0
4.050483716499969e-06 6.693122477797054e-06 0
5.692795002158664e-06 4.261847304861282e-06 0
1.179266528240179e-05 3.257572808694667e-05 0
1.684829826668038e-05 6.527682062734055e-06 0
1.316601478949761e-05 4.980912514228313e-06 0
1.692977440900209e-05 5.527610653984006e-06 0
7.914394691075852e-06 3.340434677132127e-06 0
7.748379321484383e-06 3.438542891933265e-06 0
2.911568554665395e-06 6.640479533105797e-06 0
1.612195209894437e-05 8.346813602976766e-06 0
5.265767646473129e-06 6.377415011848621e-06 0
4.750893680735099e-06 6.960589526596418e-06 0
5.876257572229414e-06 5.399533443477901e-06 0
5.261348881973261e-06 4.577061203619199e-06 0
3.426510802454165e-07 5.790014669069545e-06 0
1.747261374159738e-05 5.577745195708594e-06 0
4.97731474113664e-06 4.674716052323775e-06 0
5.2281623664962e-06 4.815635291110741e-06 0
5.100021820865416e-06 5.011872396731153e-06 0
7.230456825813046e-06 3.707579515322652e-06 0
7.485687152881567e-06 3.83433433953471e-06 0
1.284985130406009e-05 4.338360691397602e-06 0
6.371912789557598e-06 4.668411331491776e-06 0
6.971130033256269e-07 5.333492537136572e-06 0
5.688152438811567e-06 4.40001505434747e-06 0
1.789050669223132e-05 5.107233920362664e-06 0
1.094933077039123e-07 5.107233920330487e-06 0
8.273237540537206e-06 3.437847516326444e-06 0
8.326119532707928e-06 3.241998537887973e-06 0
7.316146826170926e-06 9.254935985220868e-06 0
1.288038464827014e-05 4.488546636842547e-06 0
9.429928110744207e-06 2.931410098156649e-06 0
1.277885042119209e-06 7.883598729873462e-06 0
9.582065025356616e-06 4.302886607559328e-05 0
7.401999648079453e-06 4.030426471034106e-06 0
3.244256857592037e-06 5.899871977552879e-06 0
1.109533683281354e-05 3.60021525518066e-06 0
1.483869716999286e-05 5.558764663337735e-06 0
1.956712653968518e-06 5.246894481783476e-06 0
1.62311022303981e-05 5.565489222719358e-06 0
8.893220366327854e-06 4.376891298439009e-06 0
1.243844785464157e-05 4.187990683321706e-06 0
7.552969477829929e-06 6.121501246447294e-06 0
7.245098756712647e-06 5.171115546242945e-06 0
9.271412075532894e-06 3.246772460908998e-06 0
1.283610484887026e-05 4.925050995293526e-06 0
1.215360203739953e-06 5.174505684885254e-06 0
8.778815299198912e-06 3.012665441124181e-06 0
9.366057609311938e-06 3.051774098010009e-06 0
7.682439505118828e-06 3.808138584928365e-06 0
3.766512573388626e-06 4.608498159367124e-06 0
6.160014323261548e-06 3.774292006213922e-06 0
6.353954717581395e-07 6.367269863977321e-06 0
7.490372152238868e-06 3.558707554023644e-06 0
6.084472218784918e-06 4.384564238087165e-06 0
7.956021120230845e-06 4.536994210269354e-06 0
8.238585618768188e-06 4.992882900887836e-06 0
1.231044108535566e-05 4.858572886103102e-06 0
1.240772342089868e-05 5.086708794890482e-06 0
9.706961535640136e-07 5.05500867510552e-06 0
1.581584326666407e-05 5.71074065223981e-06 0
1.362932754534947e-05 5.615340959984133e-06 0
3.684253842177247e-06 4.795317784230954e-06 0
1.719039991075043e-05 5.739250731885599e-06 0
3.361350628542428e-06 5.008164096595355e-06 0
4.903519080519151e-06 5.906480602415274e-06 0
1.448853856174551e-05 5.450933323596204e-06 0
8.281945263940514e-06 3.08737770654697e-06 0
1.197425123268506e-06 5.710267462202594e-06 0
5.576151570209305e-06 5.521991240149288e-06 0
1.56170342573612e-05 5.456474410902933e-06 0
8.52137457867636e-06 3.224056010578704e-06 0
8.549229971090728e-06 4.061853688107033e-06 0
1.400276222949852e-05 5.792357611942054e-06 0
8.982262980220242e-07 6.157009386370067e-06 0
6.107072992918854e-06 6.669346315241028e-06 0
1.52226209982175e-05 5.888761933764097e-06 0
1.138669663839919e-05 4.04280544536091e-06 0
8.845991592458166e-06 2.411871187953074e-06 0
1.202402484414994e-05 5.748052426393284e-06 0
1.129379994963752e-05 3.519859642774565e-06 0
6.068719593143678e-06 4.558920823429208e-06 0
1.557681910384997e-05 5.748528148181784e-05 0
2.557589556269642e-06 5.733188615439166e-05 0
1.687257751171829e-05 5.758325951005869e-06 0
9.549067007829162e-06 4.041414761751908e-06 0
1.151567029020892e-05 4.266725175936027e-06 0
1.181939469795494e-05 4.795560356682934e-06 0
1.161736409654704e-05 4.763616388347849e-06 0
1.60234858587777e-05 6.698317759332362e-06 0
1.247730338793313e-05 4.857472774568441e-06 0
4.587534829181341e-06 5.017581303811954e-06 0
9.086219808222811e-06 2.940124501560875e-06 0
3.474885638113702e-06 7.135910281144395e-06 0
1.504903629386652e-05 6.877826927360742e-06 0
9.719292996235051e-06 3.352199362781503e-06 0
9.7306422036293e-06 3.107379263703074e-06 0
1.225861892300058e-05 4.088887656948859e-06 0
1.099810118995565e-05 3.540587958356457e-06 0
1.705753182106923e-05 5.651131922290634e-06 0
1.388696498199054e-05 7.190651697280756e-06 0
6.514136254066997e-06 6.15890064863963e-06 0
2.695513161463992e-06 5.386541541532265e-06 0
9.742372530909948e-06 5.190296513762433e-06 0
9.759376691861927e-06 2.988873616704947e-06 0
3.952744350775382e-06 4.712820866237069e-06 0
6.361125034606138e-06 3.846512991017866e-06 0
8.383341567811193e-06 5.565893751612759e-06 0
9.01386669991408e-06 3.793151607536803e-05 0
8.195561995141893e-06 3.16169153391976e-06 0
1.411283531783033e-05 5.55331922938433e-06 0
5.695123248262228e-06 4.131030653828076e-06 0
6.744063593847627e-06 4.453743310703085e-06 0
7.982680966163706e-06 3.612805327860962e-06 0
8.719235341923028e-07 5.516605709119759e-06 0
5.437098832211851e-06 4.842425587310594e-06 0
5.758854775274089e-06 4.711967423233498e-06 0
3.816281209696691e-06 5.250112398731736e-06 0
1.241968976575425e-05 4.80657560197856e-05 0
5.239352393220776e-06 4.696096196390247e-06 0
1.116879674303761e-05 3.991359938664275e-06 0
2.055057450263298e-06 5.210558682557383e-06 0
1.228023052944417e-05 4.41728757789658e-05 0
1.087068782913362e-05 3.612222849726731e-06 0
1.350324904370767e-05 4.404495634406415e-06 0
8.971128746367301e-06 3.43103513557423e-05 0
1.339898828847502e-05 5.857688235960699e-06 0
4.75455200452088e-06 5.069797338757243e-06 0
1.136014227554101e-05 4.175467964737764e-06 0
1.184736212633597e-05 2.943636363465692e-05 0
7.081669761632777e-06 4.242286258436989e-06 0
1.67735326162151e-05 5.467718648681583e-06 0
1.044992646699986e-05 3.727561624287546e-06 0
1.720744453126147e-05 5.919201240802412e-06 0
1.620820690986811e-05 5.74005100548454e-06 0
1.002379010581892e-05 3.49932552787898e-06 0
1.01606529296483e-05 3.63966502925381e-06 0
1.070564612536239e-05 3.831232407547899e-06 0
1.231067636059748e-05 4.394970011509733e-06 0
1.3217258042566e-05 1.396444222031805e-05 0
1.311448276964591e-05 8.800926363779994e-06 0
1.368835882140078e-05 4.476834073297461e-06 0
1.161939215789152e-05 4.088379605486709e-06 0

CELLS 2250 8817
2 0 5
2 5 6
2 6 7
2 7 8
2 8 9
2 9 10
2 10 11
2 11 12
2 12 13
2 13 14
2 14 15
2 15 16
2 16 17
2 17 18
2 18 19
2 19 20
2 20 21
2 21 22
2 22 23
2 23 24
2 24 25
2 25 26
2 26 27
2 27 1
2 2 28
2 28 29
2 29 30
2 30 31
2 31 0
2 3 32
2 32 33
2 33 34
2 34 35
2 35 36
2 36 37
2 37 38
2 38 39
2 39 40
2 40 41
2 41 42
2 42 43
2 43 44
2 44 45
2 45 46
2 46 47
2 47 48
2 48 49
2 49 50
2 50 51
2 51 52
2 52 53
2 53 54
2 54 2
2 4 55
2 55 56
2 56 57
2 57 58
2 58 59
2 59 60
2 60 61
2 61 62
2 62 63
2 63 64
2 64 65
2 65 66
2 66 67
2 67 68
2 68 69
2 69 70
2 70 71
2 71 72
2 72 73
2 73 74
2 74 75
2 75 76
2 76 77
2 77 78
2 78 79
2 79 80
2 80 81
2 81 82
2 82 83
2 83 84
2 84 85
2 85 86
2 86 87
2 87 88
2 88 89
2 89 90
2 90 91
2 91 92
2 92 93
2 93 94
2 94 95
2 95 96
2 96 97
2 97 98
2 98 99
2 99 100
2 100 101
2 101 102
2 102 103
2 103 104
2 104 105
2 105 106
2 106 107
2 107 108
2 108 109
2 109 110
2 110 111
2 111 112
2 112 113
2 113 114
2 114 115
2 115 116
2 116 117
2 117 118
2 118 3
2 1 119
2 119 120
2 120 121
2 121 122
2 122 123
2 123 124
2 124 125
2 125 126
2 126 127
2 127 128
2 128 129
2 129 130
2 130 131
2 131 132
2 132 133
2 133 134
2 134 135
2 135 136
2 136 137
2 137 138
2 138 139
2 139 140
2 140 141
2 141 142
2 142 143
2 143 144
2 144 145
2 145 146
2 146 147
2 147 148
2 148 149
2 149 150
2 150 151
2 151 152
2 152 153
2 153 154
2 154 155
2 155 156
2 156 157
2 157 158
2 158 159
2 159 160
2 160 161
2 161 162
2 162 163
2 163 164
2 164 165
2 165 166
2 166 167
2 167 168
2 168 169
2 169 170
2 170 171
2 171 172
2 172 173
2 173 174
2 174 175
2 175 176
2 176 177
2 177 178
2 178 179
2 179 180
2 180 181
2 181 182
2 182 4
3 342 924 217
3 323 1020 293
3 1005 1064 516
3 217 992 342
3 489 823 548
3 444 465 442
3 484 849 566
3 844 938 497
3 16 346 15
3 1040 1041 476
3 239 639 383
3 259 997 257
3 130 357 129
3 617 1114 325
3 519 675 674
3 237 357 355
3 805 894 746
3 237 355 354
3 295 323 293
3 318 344 316
3 465 494 442
3 741 835 362
3 146 714 145
3 163 677 162
3 273 957 825
3 434 538 432
3 241 868 809
3 278 957 273
3 712 883 769
3 951 991 327
3 383 972 239
3 340 1043 291
3 459 1030 456
3 328 1018 802
3 531 1110 527
3 533 534 187
3 936 998 385
3 756 892 475
3 432 438 430
3 519 674 673
3 839 840 492
3 794 805 796
3 358 359 356
3 796 822 798
3 339 396 389
3 438 478 430
3 749 916 745
3 458 562 560
3 187 535 533
3 481 1118 867
3 834 835 741
3 264 266 265
3 804 874 336
3 676 764 183
3 47 777 46
3 463 728 727
3 457 459 456
3 548 823 422
3 445 952 447
3 426 489 424
3 538 961 432
3 330 501 499
3 506 1026 508
3 872 873 871
3 348 351 242
3 339 936 281
3 750 916 749
3 475 763 756
3 489 490 424
3 444 914 465
3 303 847 319
3 532 1110 1074
3 536 543 417
3 262 1097 264
3 206 550 547
3 319 1062 303
3 935 936 385
3 492 840 603
3 484 1078 454
3 872 971 950
3 440 1103 441
3 308 312 305
3 465 495 494
3 727 729 463
3 739 898 834
3 809 887 241
3 355 358 356
3 200 363 358
3 989 990 649
3 727 838 729
3 334 942 617
3 454 929 484
3 283 1067 284
3 200 357 130
3 129 357 237
3 297 1056 295
3 325 943 617
3 891 976 86
3 428 468 426
3 275 1006 752
3 822 916 750
3 816 887 811
3 456 1030 461
3 468 823 489
3 517 1064 512
3 457 1054 459
3 276 997 259
3 395 970 621
3 145 714 190
3 162 677 212
3 146 715 714
3 163 678 677
3 618 620 204
3 729 838 464
3 200 358 357
3 597 876 338
3 769 955 712
3 786 836 789
3 803 873 872
3 242 966 348
3 395 621 392
3 252 887 816
3 240 954 580
3 312 1086 305
3 580 1061 240
3 395 988 970
3 330 1023 312
3 746 902 805
3 703 715 701
3 661 678 659
3 701 715 213
3 659 678 188
3 229 615 613
3 308 1090 312
3 338 933 597
3 391 908 219
3 113 908 907
3 793 947 794
3 438 479 478
3 789 793 791
3 753 957 379
3 731 1061 578
3 537 976 891
3 245 777 47
3 432 961 438
3 458 565 562
3 295 958 323
3 264 274 266
3 852 882 801
3 809 868 808
3 343 865 327
3 424 1013 421
3 293 1020 338
3 264 265 262
3 458 1118 452
3 475 1075 861
3 699 701 213
3 657 659 188
3 566 848 569
3 988 1114 970
3 79 940 540
3 739 947 898
3 299 551 321
3 801 883 712
3 540 965 79
3 621 970 618
3 128 380 127
3 291 1043 289
3 538 886 638
3 313 1025 310
3 547 1124 206
3 613 630 229
3 312 1039 330
3 334 943 287
3 204 621 618
3 287 943 285
3 339 1116 1046
3 324 1117 289
3 419 536 417
3 947 1085 794
3 281 936 280
3 914 1120 483
3 904 1099 529
3 536 967 543
3 301 919 299
3 441 1111 440
3 229 620 615
3 794 796 795
3 256 278 273
3 111 620 110
3 266 279 267
3 896 1026 506
3 343 1015 865
3 796 798 797
3 638 930 538
3 485 952 445
3 802 804 328
3 674 764 676
3 865 951 327
3 367 379 255
3 46 777 248
3 750 932 822
3 611 630 613
3 203 346 16
3 317 994 316
3 240 1061 731
3 468 489 426
3 670 975 863
3 468 920 823
3 291 876 340
3 256 273 258
3 213 773 699
3 188 772 657
3 892 1075 475
3 267 271 269
3 221 997 276
3 490 1013 424
3 277 279 266
3 466 1115 890
3 183 922 676
3 454 1078 452
3 185 901 543
3 219 964 391
3 907 908 394
3 920 1024 823
3 550 622 472
3 421 471 419
3 283 1116 281
3 316 994 315
3 499 1055 330
3 255 278 256
3 251 753 379
3 180 731 179
3 537 967 536
3 333 1056 1044
3 376 905 378
3 346 966 15
3 223 255 254
3 547 550 411
3 670 974 513
3 266 267 265
3 512 1064 1005
3 857 1006 275
3 891 967 537
3 198 630 611
3 258 857 260
3 675 764 674
3 675 984 764
3 752 948 275
3 299 1109 297
3 452 1118 450
3 581 730 202
3 559 570 481
3 581 731 578
3 223 367 255
3 855 1074 531
3 464 1030 729
3 206 622 550
3 289 1043 324
3 392 621 394
3 325 1067 943
3 984 1094 764
3 569 1087 566
3 932 1047 882
3 260 1097 262
3 430 1121 428
3 289 1117 287
3 758 807 569
3 714 715 703
3 677 678 661
3 560 867 458
3 805 1085 893
3 379 957 278
3 367 859 379
3 528 1001 895
3 447 952 449
3 198 611 609
3 699 773 697
3 657 772 655
3 202 731 581
3 882 883 801
3 320 993 544
3 452 1078 458
3 652 1036 503
3 875 931 671
3 497 938 937
3 255 256 254
3 303 1062 301
3 368 992 217
3 516 889 671
3 305 1086 341
3 745 916 746
3 434 886 538
3 828 877 477
3 484 929 849
3 543 967 185
3 508 1095 507
3 515 1002 652
3 341 969 305
3 127 380 201
3 237 380 128
3 351 352 242
3 440 1111 436
3 609 762 198
3 541 944 319
3 310 1025 308
3 331 924 342
3 344 345 203
3 535 829 533
3 514 990 989
3 62 568 61
3 1074 1110 531
3 110 620 229
3 204 620 111
3 460 1054 457
3 442 1103 440
3 676 922 518
3 417 543 415
3 534 1063 187
3 542 847 341
3 458 1078 565
3 284 1116 283
3 328 1076 991
3 615 620 618
3 315 1058 314
3 485 978 542
3 435 1069 434
3 413 547 411
3 608 762 609
3 608 806 231
3 861 946 475
3 481 1119 1118
3 518 979 676
3 856 870 862
3 364 851 277
3 415 543 470
3 189 624 552
3 893 894 805
3 562 565 564
3 314 1058 313
3 804 983 328
3 292 1059 291
3 634 972 387
3 569 807 568
3 546 1026 1025
3 912 1013 1004
3 321 1109 299
3 267 279 271
3 477 1060 828
3 489 548 490
3 622 771 472
3 552 624 405
3 240 731 180
3 179 731 202
3 482 939 539
3 415 470 413
3 187 631 535
3 481 867 559
3 304 959 306
3 150 720 149
3 167 683 166
3 341 977 542
3 285 1067 283
3 203 377 344
3 231 762 608
3 509 1095 508
3 793 794 791
3 559 867 560
3 480 911 540
3 682 1092 491
3 563 567 197
3 639 858 383
3 789 791 790
3 461 1075 456
3 1000 1102 525
3 389 998 339
3 495 533 494
3 465 496 495
3 750 1047 932
3 746 894 743
3 519 1064 904
3 604 640 193
3 503 1003 652
3 491 953 682
3 354 380 237
3 423 424 421
3 443 444 442
3 420 421 419
3 271 272 269
3 197 568 62
3 274 277 266
3 456 1075 474
3 549 1124 547
3 605 824 806
3 236 842 774
3 697 773 720
3 655 772 683
3 517 1099 904
3 991 1076 327
3 888 1100 852
3 963 968 350
3 472 771 552
3 444 1120 914
3 378 1122 376
3 1025 1084 546
3 333 938 844
3 601 776 599
3 264 275 274
3 271 354 272
3 1004 1013 490
3 599 776 604
3 567 568 197
3 23 253 221
3 330 1038 501
3 911 965 540
3 828 1060 829
3 776 840 402
3 438 480 479
3 197 632 563
3 566 1079 484
3 606 619 324
3 394 908 391
3 530 531 527
3 904 1064 517
3 418 419 417
3 318 345 344
3 407 552 405
3 344 377 343
3 476 1041 945
3 836 898 789
3 411 550 409
3 303 969 847
3 598 604 193
3 856 871 870
3 276 353 221
3 828 829 535
3 312 1023 860
3 806 824 231
3 479 553 478
3 357 358 355
3 604 775 640
3 409 550 472
3 359 362 361
3 200 774 363
3 693 695 186
3 650 653 210
3 682 767 733
3 483 1120 903
3 230 775 398
3 543 901 470
3 416 417 415
3 186 720 150
3 210 683 167
3 425 426 424
3 409 472 407
3 850 915 903
3 468 1121 920
3 568 807 61
3 801 888 852
3 147 715 146
3 164 678 163
3 326 1076 317
3 596 608 607
3 471 536 419
3 563 632 561
3 679 681 649
3 717 719 690
3 255 379 278
3 405 624 401
3 865 923 792
3 362 1104 741
3 248 777 369
3 239 972 634
3 539 987 482
3 414 415 413
3 428 1121 468
3 193 629 598
3 286 287 285
3 683 772 166
3 720 773 149
3 436 1069 435
3 633 821 783
3 556 760 627
3 605 821 194
3 213 715 147
3 188 678 164
3 338 1059 293
3 327 1076 326
3 774 842 363
3 382 383 249
3 552 771 189
3 786 789 788
3 596 806 608
3 186 722 693
3 210 721 650
3 402 840 839
3 427 428 426
3 695 720 186
3 653 683 210
3 412 413 411
3 364 1042 851
3 592 605 594
3 351 369 352
3 617 943 334
3 455 1027 454
3 734 770 735
3 632 641 561
3 605 806 594
3 410 411 409
3 643 679 649
3 685 717 690
3 640 775 230
3 631 827 535
3 398 775 402
3 598 629 584
3 429 430 428
3 451 452 450
3 890 1119 481
3 293 1059 292
3 594 806 596
3 581 853 730
3 408 409 407
3 786 949 836
3 980 990 514
3 470 547 413
3 592 821 605
3 680 782 767
3 386 387 384
3 693 722 689
3 650 721 647
3 596 607 606
3 959 968 311
3 236 761 740
3 743 894 770
3 406 407 405
3 399 624 623
3 486 1010 460
3 740 842 236
3 495 534 533
3 783 821 590
3 730 838 725
3 735 770 744
3 594 596 595
3 288 289 287
3 587 783 590
3 592 594 593
3 45 832 44
3 590 592 591
3 561 641 558
3 623 624 189
3 274 364 277
3 431 432 430
3 672 979 518
3 725 838 727
3 390 391 388
3 354 355 272
3 567 569 568
3 501 1032 500
3 401 624 399
3 480 540 479
3 381 382 249
3 510 931 875
3 399 623 397
3 584 629 582
3 627 760 625
3 742 770 734
3 680 767 682
3 733 767 732
3 205 758 755
3 732 767 199
3 882 1047 883
3 453 454 452
3 572 763 575
3 205 807 758
3 364 948 216
3 642 679 643
3 724 730 725
3 684 717 685
3 811 887 809
3 590 821 592
3 472 552 407
3 767 782 199
3 379 859 251
3 745 781 749
3 199 766 732
3 722 765 689
3 721 768 647
3 608 609 607
3 471 537 536
3 755 758 757
3 580 759 573
3 740 761 736
3 347 350 349
3 194 824 605
3 306 959 311
3 569 848 758
3 336 983 804
3 587 590 589
3 845 1018 328
3 194 821 633
3 404 405 401
3 558 641 227
3 205 755 754
3 872 874 803
3 792 951 865
3 382 384 383
3 25 223 24
3 433 434 432
3 369 370 352
3 604 776 775
3 339 1046 396
3 928 996 687
3 752 825 751
3 637 638 636
3 557 558 227
3 754 755 574
3 557 570 559
3 349 897 351
3 574 763 572
3 872 950 874
3 470 549 547
3 386 388 387
3 732 766 726
3 689 765 686
3 647 768 644
3 290 291 289
3 390 392 391
3 355 356 272
3 635 637 636
3 232 1033 713
3 518 1034 672
3 554 557 227
3 191 760 556
3 571 754 574
3 573 759 224
3 749 781 195
3 736 761 196
3 609 610 607
3 724 725 234
3 642 643 192
3 684 685 211
3 723 769 747
3 370 371 352
3 369 777 370
3 267 269 268
3 747 769 748
3 339 998 936
3 633 783 228
3 557 559 558
3 755 756 574
3 775 776 402
3 96 397 95
3 101 582 100
3 70 625 69
3 172 642 171
3 178 724 177
3 155 684 154
3 142 723 141
3 137 742 136
3 123 751 122
3 857 1097 260
3 228 783 583
3 392 394 391
3 36 222 35
3 555 778 570
3 609 611 610
3 556 850 778
3 685 686 211
3 725 726 234
3 643 644 192
3 686 765 211
3 644 768 192
3 726 766 234
3 370 372 371
3 397 623 95
3 582 629 100
3 625 760 69
3 177 724 234
3 171 642 192
3 136 742 734
3 154 684 211
3 723 747 141
3 122 751 238
3 755 757 756
3 559 560 558
3 756 763 574
3 508 1026 511
3 611 612 610
3 725 727 726
3 685 687 686
3 643 645 644
3 373 992 214
3 560 561 558
3 611 613 612
3 685 690 687
3 643 649 645
3 727 728 726
3 645 646 644
3 687 688 686
3 560 562 561
3 613 614 612
3 728 732 726
3 646 647 644
3 688 689 686
3 562 563 561
3 613 615 614
3 646 648 647
3 688 691 689
3 728 733 732
3 562 564 563
3 615 616 614
3 691 693 689
3 648 650 647
3 564 567 563
3 615 618 616
3 648 651 650
3 691 694 693
3 651 653 650
3 694 695 693
3 651 654 653
3 694 696 695
3 696 697 695
3 654 655 653
3 696 698 697
3 655 683 653
3 697 720 695
3 654 656 655
3 656 657 655
3 698 699 697
3 698 700 699
3 656 658 657
3 658 659 657
3 700 701 699
3 658 660 659
3 700 702 701
3 702 703 701
3 660 662 661
3 706 714 703
3 666 668 667
3 702 704 703
3 674 676 669
3 709 711 710
3 668 669 667
3 660 661 659
3 711 712 710
3 663 677 661
3 664 666 665
3 709 710 708
3 704 706 703
3 673 674 669
3 707 709 708
3 668 673 669
3 664 665 663
3 666 667 665
3 710 713 708
3 711 801 712
3 707 708 706
3 662 664 663
3 662 663 661
3 667 672 665
3 704 707 706
3 579 581 578
3 577 579 578
3 599 604 598
3 577 578 576
3 738 741 740
3 586 599 598
3 575 577 576
3 738 740 736
3 576 580 573
3 583 783 587
3 586 598 584
3 737 738 736
3 735 744 737
3 575 576 573
3 680 682 681
3 583 587 585
3 398 402 400
3 585 586 584
3 400 401 399
3 572 575 573
3 556 778 555
3 735 737 736
3 748 750 749
3 555 570 557
3 810 812 811
3 166 772 165
3 149 773 148
3 375 968 959
3 583 585 584
3 718 719 717
3 398 400 399
3 745 746 743
3 680 681 679
3 555 557 554
3 571 574 572
3 572 573 224
3 191 556 555
3 748 749 195
3 735 736 196
3 810 811 809
3 487 1010 486
3 398 399 397
3 583 584 582
3 626 627 625
3 520 718 717
3 743 770 742
3 235 745 743
3 233 680 679
3 863 975 510
3 571 572 224
3 209 637 635
3 191 555 554
3 635 636 226
3 747 748 195
3 734 735 196
3 387 964 634
3 250 810 809
3 818 819 244
3 520 780 718
3 235 781 745
3 233 782 680
3 35 381 34
3 25 367 223
3 393 395 392
3 729 1054 463
3 521 1099 517
3 597 906 876
3 533 829 494
3 733 1092 682
3 627 850 556
3 165 772 188
3 148 773 213
3 61 807 60
3 226 827 631
3 601 840 776
3 885 1057 263
3 389 390 388
3 208 626 625
3 230 398 397
3 228 583 582
3 216 752 751
3 235 743 742
3 520 717 684
3 202 730 724
3 233 679 642
3 14 242 13
3 46 248 45
3 26 367 25
3 6 808 5
3 7 250 6
3 9 246 8
3 11 247 10
3 10 814 9
3 8 813 7
3 52 243 51
3 54 252 53
3 48 245 47
3 50 244 49
3 49 820 48
3 51 817 50
3 53 816 52
3 34 249 33
3 107 762 106
3 97 230 96
3 71 208 70
3 81 184 80
3 92 622 91
3 57 224 56
3 102 228 101
3 76 226 75
3 112 204 111
3 67 554 66
3 115 219 114
3 65 641 64
3 99 193 98
3 88 185 87
3 85 207 84
3 83 422 82
3 78 209 77
3 60 205 59
3 117 239 116
3 59 754 58
3 63 197 62
3 77 635 76
3 116 634 115
3 95 623 94
3 108 198 107
3 66 227 65
3 100 629 99
3 118 639 117
3 110 229 109
3 106 231 105
3 56 759 55
3 109 630 108
3 69 760 68
3 68 191 67
3 64 632 63
3 74 187 73
3 75 631 74
3 98 640 97
3 103 633 102
3 104 194 103
3 82 628 81
3 94 189 93
3 93 771 92
3 58 571 57
3 91 206 90
3 120 251 119
3 157 780 156
3 138 235 137
3 162 212 161
3 168 210 167
3 129 237 128
3 151 186 150
3 179 202 178
3 165 188 164
3 176 766 175
3 173 233 172
3 171 192 170
3 132 774 131
3 148 213 147
3 135 196 134
3 154 211 153
3 141 747 140
3 127 201 126
3 139 781 138
3 181 240 180
3 121 753 120
3 156 520 155
3 143 232 142
3 140 195 139
3 158 183 157
3 160 518 159
3 133 236 132
3 170 768 169
3 177 234 176
3 131 200 130
3 124 216 123
3 152 722 151
3 169 721 168
3 134 761 133
3 122 238 121
3 136 734 135
3 145 190 144
3 175 199 174
3 153 765 152
3 174 782 173
3 72 831 71
3 730 853 838
3 60 807 205
3 214 992 368
3 385 386 384
3 528 895 716
3 193 640 98
3 57 571 224
3 226 631 75
3 91 622 206
3 194 633 103
3 239 634 116
3 422 628 82
3 63 632 197
3 68 760 191
3 66 554 227
3 229 630 109
3 117 639 239
3 209 635 77
3 99 629 193
3 106 762 231
3 198 762 107
3 191 554 67
3 94 623 189
3 227 641 65
3 189 771 93
3 205 754 59
3 76 635 226
3 81 628 184
3 108 630 198
3 224 759 56
3 115 634 219
3 58 754 571
3 102 633 228
3 74 631 187
3 92 771 622
3 64 641 632
3 97 640 230
3 236 774 132
3 175 766 199
3 199 782 174
3 195 781 139
3 151 722 186
3 140 747 195
3 168 721 210
3 192 768 170
3 238 753 121
3 211 765 153
3 196 761 134
3 156 780 520
3 183 780 157
3 169 768 721
3 133 761 236
3 152 765 722
3 131 774 200
3 135 734 196
3 120 753 251
3 138 781 235
3 173 782 233
3 234 766 176
3 876 906 340
3 230 397 96
3 228 582 101
3 208 625 70
3 520 684 155
3 233 642 172
3 232 723 142
3 235 742 137
3 202 724 178
3 216 751 123
3 751 825 238
3 34 381 249
3 250 809 808
3 814 815 246
3 817 818 244
3 499 1096 487
3 422 823 628
3 104 824 194
3 231 824 105
3 439 440 436
3 273 857 258
3 337 1041 498
3 523 1098 522
3 502 1032 501
3 810 830 812
3 105 824 104
3 422 910 548
3 275 1097 857
3 778 890 570
3 504 1017 502
3 827 828 535
3 827 877 828
3 526 1001 524
3 246 813 8
3 9 814 246
3 247 814 10
3 250 808 6
3 7 813 250
3 244 820 49
3 52 816 243
3 243 817 51
3 48 820 245
3 252 816 53
3 50 817 244
3 190 1088 713
3 212 1089 672
3 250 813 810
3 819 820 244
3 349 351 348
3 814 826 815
3 713 1033 190
3 672 1034 212
3 390 393 392
3 21 353 218
3 310 314 313
3 498 551 337
3 360 779 356
3 351 897 369
3 347 963 350
3 636 827 226
3 864 1057 885
3 514 989 973
3 324 1043 837
3 602 1020 603
3 480 961 930
3 770 894 744
3 566 849 848
3 590 591 589
3 511 1005 509
3 522 1099 521
3 247 826 814
3 592 593 591
3 778 850 466
3 23 221 22
3 815 830 246
3 222 381 35
3 500 1096 499
3 813 830 810
3 246 830 813
3 329 1090 1025
3 305 969 303
3 456 1027 455
3 861 1075 461
3 294 295 293
3 386 389 388
3 71 831 208
3 524 1098 523
3 594 595 593
3 201 851 126
3 478 1121 430
3 988 1067 325
3 636 877 827
3 527 1001 526
3 445 1120 444
3 320 1058 993
3 741 842 740
3 570 890 481
3 690 928 687
3 681 989 649
3 404 406 405
3 506 1113 505
3 383 858 249
3 890 1115 448
3 247 981 826
3 758 848 757
3 744 833 737
3 33 858 32
3 27 859 26
3 220 281 280
3 455 457 456
3 402 839 400
3 587 588 585
3 988 1082 1067
3 737 739 738
3 596 606 595
3 382 385 384
3 282 283 281
3 311 968 963
3 89 1124 549
3 757 892 756
3 447 1115 446
3 513 975 670
3 688 692 691
3 406 408 407
3 380 956 201
3 400 403 401
3 585 841 586
3 218 864 366
3 738 834 741
3 505 1017 504
3 216 1042 364
3 648 652 651
3 645 900 646
3 449 1119 448
3 586 600 599
3 565 1079 564
3 38 220 37
3 580 899 759
3 956 1029 201
3 314 316 315
3 528 999 692
3 256 258 257
3 829 1060 441
3 296 297 295
3 348 966 346
3 963 1012 311
3 587 589 588
3 37 280 36
3 408 410 409
3 216 948 752
3 983 1076 328
3 903 915 483
3 359 1021 362
3 789 898 793
3 126 851 125
3 87 891 86
3 652 1003 515
3 694 716 696
3 798 882 852
3 215 1015 343
3 900 990 980
3 675 1007 984
3 906 1053 340
3 512 1005 511
3 515 1017 880
3 24 253 23
3 579 853 581
3 446 1120 445
3 638 877 636
3 352 881 242
3 607 619 606
3 403 404 401
3 277 1029 279
3 903 1115 466
3 474 1075 892
3 545 1084 320
3 306 308 305
3 410 412 411
3 55 899 4
3 4 899 182
3 519 904 675
3 671 931 516
3 358 1021 359
3 507 1113 506
3 21 218 20
3 281 1116 339
3 610 619 607
3 627 915 850
3 796 797 795
3 475 946 763
3 696 843 698
3 248 832 45
3 654 878 656
3 803 874 804
3 805 902 796
3 448 1115 447
3 480 930 911
3 794 795 791
3 13 881 12
3 713 1045 232
3 744 894 893
3 298 299 297
3 600 601 599
3 719 926 690
3 714 1088 190
3 677 1089 212
3 798 799 797
3 347 349 348
3 113 907 112
3 737 833 739
3 981 1108 826
3 612 846 610
3 40 217 39
3 114 908 113
3 838 853 464
3 412 414 413
3 546 1084 545
3 763 946 575
3 450 1119 449
3 950 971 531
3 249 858 33
3 26 859 367
3 723 955 769
3 400 839 403
3 621 907 394
3 204 907 621
3 588 841 585
3 656 879 658
3 637 930 638
3 363 1021 358
3 739 834 738
3 925 1030 464
3 271 956 354
3 19 365 215
3 1014 1031 892
3 359 360 356
3 354 956 380
3 744 893 833
3 881 917 12
3 19 215 18
3 30 241 29
3 448 1119 890
3 798 852 799
3 207 910 84
3 83 910 422
3 369 897 248
3 360 784 779
3 1044 1056 297
3 80 940 79
3 818 1016 815
3 316 326 317
3 586 841 600
3 242 881 13
3 258 260 259
3 42 214 41
3 518 922 159
3 158 922 183
3 649 990 645
3 904 1007 675
3 414 416 415
3 300 301 299
3 603 1049 492
3 72 1063 831
3 391 964 388
3 11 917 247
3 79 965 78
3 302 959 304
3 449 952 462
3 787 923 885
3 700 705 702
3 184 1024 553
3 287 1117 334
3 17 203 16
3 260 262 261
3 307 959 302
3 384 972 383
3 634 964 219
3 86 976 85
3 616 617 614
3 22 353 21
3 944 1070 476
3 567 1087 569
3 667 979 672
3 676 979 669
3 825 957 238
3 614 942 612
3 477 1125 886
3 44 225 43
3 181 954 240
3 362 835 361
3 764 1094 183
3 371 881 352
3 769 1047 748
3 628 1024 184
3 41 368 40
3 32 1008 3
3 1 1009 27
3 3 1008 118
3 119 1009 1
3 319 847 541
3 376 968 375
3 183 1094 780
3 785 885 884
3 90 1124 89
3 253 997 221
3 829 1103 494
3 663 1089 677
3 713 1088 708
3 672 1089 665
3 706 1088 714
3 796 902 822
3 576 1061 580
3 525 928 927
3 698 941 700
3 416 418 417
3 831 1063 534
3 692 999 691
3 702 854 704
3 660 670 662
3 688 996 692
3 302 303 301
3 190 1033 144
3 160 1034 518
3 143 1033 232
3 212 1034 161
3 17 377 203
3 88 1107 185
3 124 1042 216
3 716 843 696
3 31 868 30
3 29 869 28
3 187 1063 73
3 437 987 539
3 366 923 865
3 371 917 881
3 493 1049 958
3 43 378 42
3 883 1047 769
3 275 948 274
3 466 890 778
3 326 343 327
3 14 966 242
3 20 365 19
3 822 932 798
3 514 1096 980
3 895 1001 527
3 835 898 836
3 512 521 517
3 510 1095 931
3 542 977 485
3 577 861 579
3 694 999 716
3 652 1002 651
3 207 1004 910
3 819 985 820
3 331 986 924
3 325 1114 988
3 418 420 419
3 692 1000 528
3 185 891 87
3 848 1014 757
3 934 1020 602
3 457 486 460
3 900 1036 646
3 712 1045 710
3 549 1107 89
3 648 1036 652
3 610 846 619
3 903 1120 446
3 272 779 269
3 512 545 521
3 704 862 707
3 662 863 664
3 356 779 272
3 18 377 17
3 539 939 321
3 831 1081 208
3 878 879 656
3 304 305 303
3 973 1096 514
3 345 346 203
3 544 1052 320
3 36 280 222
3 343 377 215
3 719 1007 926
3 927 1098 525
3 874 950 336
3 248 897 832
3 298 982 300
3 39 866 38
3 654 1002 878
3 794 1085 805
3 851 1042 125
3 470 901 549
3 817 1105 818
3 843 941 698
3 746 916 902
3 579 925 853
3 716 999 528
3 759 899 55
3 420 423 421
3 815 1016 830
3 729 1030 459
3 353 1035 218
3 267 268 265
3 461 925 861
3 682 953 681
3 440 443 442
3 390 396 393
3 612 942 846
3 973 989 953
3 707 870 709
3 664 875 666
3 486 499 487
3 309 342 332
3 465 914 496
3 5 1066 0
3 2 1065 54
3 521 523 522
3 494 1103 442
3 1025 1026 329
3 580 954 899
3 15 966 14
3 791 845 790
3 389 396 390
3 220 280 37
3 498 1041 488
3 658 974 660
3 691 999 694
3 853 925 464
3 789 790 788
3 306 310 308
3 297 1109 1044
3 499 501 500
3 926 928 690
3 741 1104 842
3 269 779 270
3 540 1080 479
3 849 1014 848
3 324 837 606
3 523 526 524
3 381 935 382
3 446 1115 903
3 44 832 225
3 185 1107 901
3 651 1002 654
3 30 868 241
3 241 869 29
3 687 996 688
3 471 912 537
3 575 946 577
3 700 941 705
3 423 425 424
3 209 911 637
3 312 1090 1039
3 495 1019 534
3 349 962 897
3 501 504 502
3 84 910 83
3 617 942 614
3 525 1098 1000
3 437 539 498
3 112 907 204
3 223 254 253
3 283 286 285
3 626 915 627
3 526 530 527
3 462 913 860
3 553 920 478
3 219 908 114
3 709 800 711
3 666 671 668
3 927 928 926
3 0 1066 31
3 28 1065 2
3 256 257 254
3 245 1112 777
3 885 923 864
3 443 445 444
3 879 974 658
3 12 917 11
3 799 873 803
3 403 839 492
3 386 998 389
3 856 872 871
3 504 506 505
3 263 1051 884
3 850 903 466
3 484 1079 565
3 359 361 360
3 321 551 539
3 445 447 446
3 811 1101 816
3 463 1050 728
3 834 898 835
3 382 935 385
3 159 922 158
3 241 887 869
3 441 1103 829
3 815 1091 818
3 673 1037 519
3 705 854 702
3 506 508 507
3 347 348 346
3 279 956 271
3 279 1029 956
3 534 1019 831
3 447 449 448
3 603 840 601
3 873 1100 871
3 425 427 426
3 938 1044 939
3 577 946 861
3 852 1100 873
3 603 1020 323
3 209 965 911
3 869 887 252
3 880 1113 513
3 711 888 801
3 668 889 673
3 798 932 882
3 449 451 450
3 508 511 509
3 427 429 428
3 476 945 944
3 438 961 480
3 286 288 287
3 485 977 952
3 184 940 80
3 421 1013 471
3 274 948 364
3 1019 1081 831
3 429 431 430
3 462 952 913
3 646 1036 648
3 451 453 452
3 660 974 670
3 217 866 39
3 787 885 785
3 350 962 349
3 897 962 832
3 511 545 512
3 218 366 365
3 431 433 432
3 515 880 878
3 819 1108 985
3 886 1125 638
3 511 1026 546
3 461 1030 925
3 645 990 900
3 288 290 289
3 474 1027 456
3 225 1122 378
3 847 969 341
3 201 1029 851
3 958 1049 323
3 910 1004 548
3 273 1006 857
3 453 455 454
3 182 954 181
3 332 1077 309
3 238 957 753
3 917 981 247
3 350 968 376
3 388 964 387
3 433 435 434
3 876 1059 338
3 943 1067 285
3 232 955 723
3 385 998 386
3 276 1035 353
3 854 862 704
3 670 863 662
3 930 961 538
3 459 1054 729
3 616 1114 617
3 955 1045 712
3 387 972 384
3 290 292 291
3 435 439 436
3 270 884 268
3 548 1004 490
3 503 1032 1003
3 618 970 616
3 78 965 209
3 262 1051 263
3 777 1112 370
3 214 368 41
3 752 1006 825
3 269 270 268
3 902 916 822
3 884 885 263
3 898 947 793
3 292 294 293
3 669 979 667
3 307 1123 375
3 496 1019 495
3 372 981 371
3 370 1112 372
3 40 368 217
3 1011 1092 1050
3 338 1020 934
3 718 984 719
3 531 971 855
3 85 976 207
3 779 784 270
3 220 282 281
3 825 1006 273
3 818 1105 1016
3 1069 1111 477
3 799 803 802
3 299 919 551
3 525 996 928
3 294 296 295
3 440 978 443
3 553 1080 184
3 342 1072 331
3 225 378 43
3 728 1050 733
3 880 1017 505
3 820 985 245
3 851 1029 277
3 334 1117 1022
3 860 1068 462
3 899 954 182
3 1011 1050 463
3 38 866 220
3 318 963 345
3 27 1009 859
3 858 1008 32
3 589 597 588
3 471 1013 912
3 296 298 297
3 862 870 707
3 863 875 664
3 42 378 214
3 403 492 467
3 345 347 346
3 718 1094 984
3 591 906 589
3 553 1024 920
3 403 467 404
3 808 1066 5
3 54 1065 252
3 393 988 395
3 318 1012 963
3 551 919 337
3 606 837 595
3 710 1045 713
3 214 905 373
3 830 1016 812
3 757 1014 892
3 463 1054 1011
3 406 497 408
3 913 1086 860
3 832 962 225
3 600 602 601
3 940 1080 540
3 185 967 891
3 118 1008 639
3 251 1009 119
3 479 1080 553
3 258 259 257
3 298 300 299
3 833 947 739
3 861 925 579
3 222 935 381
3 320 995 545
3 283 986 286
3 748 1047 750
3 144 1033 143
3 161 1034 160
3 792 923 787
3 823 1024 628
3 602 603 601
3 329 1026 896
3 375 959 307
3 125 1042 124
3 892 1031 474
3 260 261 259
3 856 862 854
3 578 1061 576
3 846 942 334
3 852 873 799
3 455 909 457
3 1046 1082 396
3 953 989 681
3 784 949 786
3 313 1084 1025
3 264 1097 275
3 595 918 593
3 837 1043 918
3 300 302 301
3 262 263 261
3 410 469 412
3 223 253 24
3 1025 1090 308
3 483 1106 914
3 338 934 933
3 915 1106 483
3 254 997 253
3 372 1108 981
3 73 1063 72
3 878 1002 515
3 404 921 406
3 498 1028 437
3 365 1015 215
3 564 1087 567
3 708 1088 706
3 665 1089 663
3 496 1106 1081
3 530 950 531
3 818 1091 819
3 855 856 854
3 812 1101 811
3 208 1081 626
3 886 1069 477
3 912 1004 207
3 780 1094 718
3 1101 1105 243
3 716 895 843
3 89 1107 88
3 302 304 303
3 263 1057 261
3 926 1007 529
3 477 1111 1060
3 709 870 800
3 666 875 671
3 812 1105 1101
3 911 930 637
3 505 1113 880
3 218 1035 864
3 243 1105 817
3 206 1124 90
3 816 1101 243
3 826 1091 815
3 493 844 467
3 503 1036 900
3 878 880 879
3 414 482 416
3 304 306 305
3 639 1008 858
3 859 1009 251
3 588 933 841
3 1081 1106 626
3 261 1057 276
3 513 1113 975
3 931 1095 509
3 322 1077 332
3 879 880 513
3 929 1031 849
3 332 335 322
3 334 1022 846
3 844 921 467
3 784 786 785
3 342 992 332
3 374 376 375
3 280 936 222
3 912 976 537
3 207 976 912
3 842 1104 363
3 786 788 787
3 408 937 410
3 900 980 503
3 841 934 600
3 300 982 307
3 939 1044 321
3 309 1072 342
3 593 1053 591
3 374 905 376
3 345 963 347
3 835 836 361
3 473 1068 860
3 497 921 844
3 335 1083 322
3 826 1108 1091
3 1091 1108 819
3 901 1107 549
3 366 1015 365
3 529 927 926
3 488 1028 498
3 541 542 439
3 418 437 420
3 705 855 854
3 800 888 711
3 491 1092 1011
3 671 889 668
3 314 318 316
3 619 1022 324
3 938 939 469
3 795 845 791
3 529 1099 927
3 323 1049 603
3 371 981 917
3 513 974 879
3 866 924 282
3 799 802 797
3 527 1110 895
3 638 1125 877
3 439 978 440
3 565 1078 484
3 1118 1119 450
3 860 1023 473
3 220 866 282
3 939 960 469
3 282 986 283
3 265 1051 262
3 257 997 254
3 491 973 953
3 326 344 343
3 332 373 335
3 945 1041 337
3 865 1015 366
3 457 909 486
3 539 551 498
3 300 307 302
3 306 311 310
3 261 276 259
3 803 804 802
3 412 960 414
3 532 941 843
3 491 1011 1010
3 423 488 425
3 845 991 790
3 526 544 530
3 333 1044 938
3 443 485 445
3 692 1102 1000
3 504 896 506
3 294 322 296
3 950 1048 336
3 328 991 845
3 449 462 451
3 286 331 288
3 290 309 292
3 511 546 545
3 435 541 439
3 429 476 431
3 453 473 455
3 993 1048 544
3 1041 1073 488
3 373 374 335
3 985 1108 372
3 492 493 467
3 361 949 360
3 360 949 784
3 217 924 866
3 541 847 542
3 784 785 270
3 786 787 785
3 788 792 787
3 482 960 939
3 868 1066 808
3 252 1065 869
3 918 1043 340
3 516 1064 1037
3 396 1082 393
3 298 1083 982
3 545 995 521
3 860 1086 312
3 1027 1031 929
3 984 1007 719
3 443 978 485
3 222 936 935
3 893 1085 833
3 785 884 270
3 877 1125 477
3 870 871 800
3 375 1123 374
3 846 1022 619
3 376 1122 350
3 542 978 439
3 335 1123 982
3 855 971 856
3 31 1066 868
3 869 1065 28
3 522 1098 927
3 541 1071 944
3 372 1112 985
3 373 905 374
3 945 1062 319
3 996 1102 692
3 221 353 22
3 884 1051 268
3 1000 1001 528
3 1040 1073 1041
3 286 986 331
3 919 1062 337
3 790 991 951
3 184 1080 940
3 914 1106 496
3 790 951 788
3 416 987 418
3 1003 1017 515
3 924 986 282
3 336 1048 993
3 993 1058 315
3 589 906 597
3 473 909 455
3 566 1087 1079
3 1079 1087 564
3 268 1051 265
3 474 1031 1027
3 843 895 532
3 529 1007 904
3 492 1049 493
3 521 995 523
3 218 365 20
3 317 1076 983
3 434 1069 886
3 931 1005 516
3 467 921 404
3 920 1121 478
3 1067 1082 284
3 975 1095 510
3 491 1010 973
3 837 918 595
3 215 377 18
3 406 921 497
3 867 1118 458
3 393 1082 988
3 856 971 872
3 591 1053 906
3 332 992 373
3 944 945 319
3 232 1045 955
3 597 933 588
3 980 1032 503
3 487 1096 973
3 970 1114 616
3 958 1093 493
3 497 937 408
3 918 1053 593
3 378 905 214
3 310 1012 314
3 937 938 469
3 600 934 602
3 427 1040 429
3 980 1096 500
3 626 1106 915
3 410 937 469
3 337 1062 945
3 864 923 366
3 1050 1092 733
3 374 1123 335
3 797 1018 795
3 501 1038 504
3 962 1122 225
3 982 1083 335
3 833 1085 947
3 933 934 841
3 291 1059 876
3 941 1074 705
3 1000 1098 524
3 836 949 361
3 469 960 412
3 510 875 863
3 420 1028 423
3 889 1037 673
3 414 960 482
3 849 1031 1014
3 284 1082 1046
3 336 994 983
3 496 1081 1019
3 927 1099 522
3 788 951 792
3 486 1055 499
3 993 994 336
3 952 977 913
3 523 1052 526
3 705 1074 855
3 482 987 416
3 341 1086 913
3 896 1039 329
3 320 1052 995
3 418 987 437
3 975 1113 507
3 311 1012 310
3 294 1077 322
3 913 977 341
3 1037 1064 519
3 333 1093 1056
3 795 1018 845
3 1011 1054 460
3 363 1104 1021
3 276 1057 1035
3 320 1084 1058
3 985 1112 245
3 435 1071 541
3 295 1056 958
3 290 1072 309
3 425 1073 427
3 1056 1093 958
3 429 1040 476
3 453 1068 473
3 451 1068 453
3 314 1012 318
3 431 1070 433
3 288 1072 290
3 1060 1111 441
3 423 1028 488
3 330 1055 1023
3 504 1038 896
3 1016 1105 812
3 802 1018 797
3 1003 1032 502
3 350 1122 962
3 1021 1104 362
3 433 1071 435
3 526 1052 544
3 530 1048 950
3 473 1023 909
3 437 1028 420
3 493 1093 844
3 1023 1055 909
3 292 1077 294
3 330 1039 1038
3 436 1111 1069
3 895 1110 532
3 1010 1011 460
3 454 1027 929
3 909 1055 486
3 296 1083 298
3 544 1048 530
3 1038 1039 896
3 800 1100 888
3 982 1123 307
3 462 1068 451
3 516 1037 889
3 488 1073 425
3 331 1072 288
3 476 1070 431
3 500 1032 980
3 1022 1117 324
3 983 994 317
3 309 1077 292
3 322 1083 296
3 524 1001 1000
3 995 1052 523
3 502 1017 1003
3 871 1100 800
3 509 1005 931
3 427 1073 1040
3 1046 1116 284
3 1044 1109 321
3 973 1010 487
3 532 1074 941
3 844 1093 333
3 525 1102 996
3 315 994 993
3 507 1095 975
3 301 1062 919
3 1039 1090 329
3 1070 1071 433
3 340 1053 918
3 1035 1057 864
3 1058 1084 313
3 944 1071 1070
3 316 344 326

CELL_TYPES 2250
3
3
3
3
3
3
3
3
3
3
3
3
3
3
3
3
3
3
3
3
3
3
3
3
3
3
3
3
3
3
3
3
3
3
3
3
3
3
3
3
3
3
3
3
3
3
3
3
3
3
3
3
3
3
3
3
3
3
3
3
3
3
3
3
3
3
3
3
3
3
3
3
3
3
3
3
3
3
3
3
3
3
3
3
3
3
3
3
3
3
3
3
3
3
3
3
3
3
3
3
3
3
3
3
3
3
3
3
3
3
3
3
3
3
3
3
3
3
3
3
3
3
3
3
3
3
3
3
3
3
3
3
3
3
3
3
3
3
3
3
3
3
3
3
3
3
3
3
3
3
3
3
3
3
3
3
3
3
3
3
3
3
3
3
3
3
3
3
3
3
3
3
3
3
3
3
3
3
3
3
3
3
3
5
5
5
5
5
5
5
5
5
5
5
5
5
5
5
5
5
5
5
5
5
5
5
5
5
5
5
5
5
5
5
5
5
5
5
5
5
5
5
5
5
5
5
5
5
5
5
5
5
5
5
5
5
5
5
5
5
5
5
5
5
5
5
5
5
5
5
5
5
5
5
5
5
5
5
5
5
5
5
5
5
5
5
5
5
5
5
5
5
5
5
5
5
5
5
5
5
5
5
5
5
5
5
5
5
5
5
5
5
5
5
5
5
5
5
5
5
5
5
5
5
5
5
5
5
5
5
5
5
5
5
5
5
5
5
5
5
5
5
5
5
5
5
5
5
5
5
5
5
5
5
5
5
5
5
5
5
5
5
5
5
5
5
5
5
5
5
5
5
5
5
5
5
5
5
5
5
5
5
5
5
5
5
5
5
5
5
5
5
5
5
5
5
5
5
5
5
5
5
5
5
5
5
5
5
5
5
5
5
5
5
5
5
5
5
5
5
5
5
5
5
5
5
5
5
5
5
5
5
5
5
5
5
5
5
5
5
5
5
5
5
5
5
5
5
5
5
5
5
5
5
5
5
5
5
5
5
5
5
5
5
5
5
5
5
5
5
5
5
5
5
5
5
5
5
5
5
5
5
5
5
5
5
5
5
5
5
5
5
5
5
5
5
5
5
5
5
5
5
5
5
5
5
5
5
5
5
5
5
5
5
5
5
5
5
5
5
5
5
5
5
5
5
5
5
5
5
5
5
5
5
5
5
5
5
5
5
5
5
5
5
5
5
5
5
5
5
5
5
5
5
5
5
5
5
5
5
5
5
5
5
5
5
5
5
5
5
5
5
5
5
5
5
5
5
5
5
5
5
5
5
5
5
5
5
5
5
5
5
5
5
5
5
5
5
5
5
5
5
5
5
5
5
5
5
5
5
5
5
5
5
5
5
5
5
5
5
5
5
5
5
5
5
5
5
5
5
5
5
5
5
5
5
5
5
5
5
5
5
5
5
5
5
5
5
5
5
5
5
5
5
5
5
5
5
5
5
5
5
5
5
5
5
5
5
5
5
5
5
5
5
5
5
5
5
5
5
5
5
5
5
5
5
5
5
5
5
5
5
5
5
5
5
5
5
5
5
5
5
5
5
5
5
5
5
5
5
5
5
5
5
5
5
5
5
5
5
5
5
5
5
5
5
5
5
5
5
5
5
5
5
5
5
5
5
5
5
5
5
5
5
5
5
5
5
5
5
5
5
5
5
5
5
5
5
5
5
5
5
5
5
5
5
5
5
5
5
5
5
5
5
5
5
5
5
5
5
5
5
5
5
5
5
5
5
5
5
5
5
5
5
5
5
5
5
5
5
5
5
5
5
5
5
5
5
5
5
5
5
5
5
5
5
5
5
5
5
5
5
5
5
5
5
5
5
5
5
5
5
5
5
5
5
5
5
5
5
5
5
5
5
5
5
5
5
5
5
5
5
5
5
5
5
5
5
5
5
5
5
5
5
5
5
5
5
5
5
5
5
5
5
5
5
5
5
5
5
5
5
5
5
5
5
5
5
5
5
5
5
5
5
5
5
5
5
5
5
5
5
5
5
5
5
5
5
5
5
5
5
5
5
5
5
5
5
5
5
5
5
5
5
5
5
5
5
5
5
5
5
5
5
5
5
5
5
5
5
5
5
5
5
5
5
5
5
5
5
5
5
5
5
5
5
5
5
5
5
5
5
5
5
5
5
5
5
5
5
5
5
5
5
5
5
5
5
5
5
5
5
5
5
5
5
5
5
5
5
5
5
5
5
5
5
5
5
5
5
5
5
5
5
5
5
5
5
5
5
5
5
5
5
5
5
5
5
5
5
5
5
5
5
5
5
5
5
5
5
5
5
5
5
5
5
5
5
5
5
5
5
5
5
5
5
5
5
5
5
5
5
5
5
5
5
5
5
5
5
5
5
5
5
5
5
5
5
5
5
5
5
5
5
5
5
5
5
5
5
5
5
5
5
5
5
5
5
5
5
5
5
5
5
5
5
5
5
5
5
5
5
5
5
5
5
5
5
5
5
5
5
5
5
5
5
5
5
5
5
5
5
5
5
5
5
5
5
5
5
5
5
5
5
5
5
5
5
5
5
5
5
5
5
5
5
5
5
5
5
5
5
5
5
5
5
5
5
5
5
5
5
5
5
5
5
5
5
5
5
5
5
5
5
5
5
5
5
5
5
5
5
5
5
5
5
5
5
5
5
5
5
5
5
5
5
5
5
5
5
5
5
5
5
5
5
5
5
5
5
5
5
5
5
5
5
5
5
5
5
5
5
5
5
5
5
5
5
5
5
5
5
5
5
5
5
5
5
5
5
5
5
5
5
5
5
5
5
5
5
5
5
5
5
5
5
5
5
5
5
5
5
5
5
5
5
5
5
5
5
5
5
5
5
5
5
5
5
5
5
5
5
5
5
5
5
5
5
5
5
5
5
5
5
5
5
5
5
5
5
5
5
5
5
5
5
5
5
5
5
5
5
5
5
5
5
5
5
5
5
5
5
5
5
5
5
5
5
5
5
5
5
5
5
5
5
5
5
5
5
5
5
5
5
5
5
5
5
5
5
5
5
5
5
5
5
5
5
5
5
5
5
5
5
5
5
5
5
5
5
5
5
5
5
5
5
5
5
5
5
5
5
5
5
5
5
5
5
5
5
5
5
5
5
5
5
5
5
5
5
5
5
5
5
5
5
5
5
5
5
5
5
5
5
5
5
5
5
5
5
5
5
5
5
5
5
5
5
5
5
5
5
5
5
5
5
5
5
5
5
5
5
5
5
5
5
5
5
5
5
5
5
5
5
5
5
5
5
5
5
5
5
5
5
5
5
5
5
5
5
5
5
5
5
5
5
5
5
5
5
5
5
5
5
5
5
5
5
5
5
5
5
5
5
5
5
5
5
5
5
5
5
5
5
5
5
5
5
5
5
5
5
5
5
5
5
5
5
5
5
5
5
5
5
5
5
5
5
5
5
5
5
5
5
5
5
5
5
5
5
5
5
5
5
5
5
5
5
5
5
5
5
5
5
5
5
5
5
5
5
5
5
5
5
5
5
5
5
5
5
5
5
5
5
5
5
5
5
5
5
5
5
5
5
5
5
5
5
5
5
5
5
5
5
5
5
5
5
5
5
5
5
5
5
5
5
5
5
5
5
5
5
5
5
5
5
5
5
5
5
5
5
5
5
5
5
5
5
5
5
5
5
5
5
5
5
5
5
5
5
5
5
5
5
5
5
5
5
5
5
5
5
5
5
5
5
5
5
5
5
5
5
5
5
5
5
5
5
5
5
5
5
5
5
5
5
5
5
5
5
5
5
5
5
5
5
5
5
5
5
5
5
5
5
5
5
5
5
5
5
5
5
5
5
5
5
5
5
5
5
5
5
5
5
5
5
5
5
5
5
5
5
5
5
5
5
5
5
5
5
5
5
5
5
5
5
5
5
5
5
5
5
5
5
5
5
5
5
5
5
5
5
5
5
5
5
5
5
5
5
5
5
5
5
5
5
5
5
5
5
5
5
5
5
5
5
5
5
5
5
5
5
5
5
5
5
5
5
5
5
5
5
5
5
5
5
5
5
5
5
5
5
5
5
5
5
5
5
5
5
5
5
5
5
5
5
5
5
5
5
5
5
5
5
5
5
5
5
5
5
5
5
5
5
5
5
5
5
5
5
5
5
5
5
5
5
5
5
5
5
5
5
5
5
5
5
5
5
5
5
5
5
5
5
5
5
5
5
5
5
5
5
5
5
5
5
5
5
5
5
5
5
5
5
5
5
5
5
5
5
5
5
5
5
5
5
5
5
5
5
5
5
5
5
5
5
5
5
5
5
5
5
5
5
5
5
5
5
5
5
5
5
5
5
5
5
5
5
5
5
5
5
5
5
5
5
5
5
5
5
5
5
5
5
5
5
5
5
5
5
5
5
5
5
5
5
5
5
5
5
5
5
5
5
5
5
5
5
5
5
5
5
5
5
5
5
5
5
5
5
5
5
5
5
5
5
5
5
5
5
5
5
5
5
5
5
5
5
5
5
5
5
5
5
5
5
5
5
5
5
5
5
5
5
5
5
5
5
5
5
5
5
5
5
5
5
5
5
5
5
5
5
5
5
5
5
5
5
5
5
5
5
5
5
5
5
5
5
5
5
5
5
5
5
5
5
5
5
5
5
5
5
5
5
5
5
5
5
5
5
5
5
5
5
5
5
5
5
5
5
5
5
5
5
5
5
5
5
5
5
5
5
5
5
5
5
5
5
5
5
5
5
5
5
5
5
5
5
5
5
5
5
5
5
5
5
5
5
5
5
5
5
5
5
5
5
5
5
5
5
5
5
5
5
5
5
5
5
5
5
5
5
5
5
5
5
5
5
5
5
5
5
5
5
5
5
5
5
5
5
5
5
5
5
5
5
5
5
5
5
5
5
5
5
5
5
5
5
5
5
5
5
5
5
5
5
5
5
5
5
5
5
5
5
5
5
5
5
5
5
5
5
5
5
5
5
5
5
5
5
5
5
5
5
5
5
5
5
5
5
5
5
5
5
5
5
5
5
5
5
5
5
5
5
5
5
5
5
5
5
5
5
5
5
5
5
5
5
5
5
5
5
5
5
5
5
5
5
5
5
5
5
5
5
5
5
5
5
5
5

CELL_DATA 2250
SCALARS CellEntityIds int 1
LOOKUP_TABLE default
3
3
3
3
3
3
3
3
3
3
3
3
3
3
3
3
3
3
3
3
3
3
3
3
5
5
5
5
5
4
4
4
4
4
4
4
4
4
4
4
4
4
4
4
4
4
4
4
4
4
4
4
4
6
6
6
6
6
6
6
6
6
6
6
6
6
6
6
6
6
6
6
6
6
6
6
6
6
6
6
6
6
6
6
6
6
6
6
6
6
6
6
6
6
6
6
6
6
6
6
6
6
6
6
6
6
6
6
6
6
6
6
6
6
6
6
6
6
6
6
6
6
6
6
6
6
6
6
6
6
6
6
6
6
6
6
6
6
6
6
6
6
6
6
6
6
6
6
6
6
6
6
6
6
6
6
6
6
6
6
6
6
6
6
6
6
6
6
6
6
6
6
6
6
6
6
6
6
6
6
6
6
6
1
1
1
1
1
1
1
1
1
1
1
1
1
1
1
1
1
1
1
1
1
1
1
1
1
1
1
1
1
1
1
1
1
1
1
1
1
1
1
1
1
1
1
1
1
1
1
1
1
1
1
1
1
1
1
1
1
1
1
1
1
1
1
1
1
1
1
1
1
1
1
1
1
1
1
1
1
1
1
1
1
1
1
1
1
1
1
1
1
1
1
1
1
1
1
1
1
1
1
1
1
1
1
1
1
1
1
1
1
1
1
1
1
1
1
1
1
1
1
1
1
1
1
1
1
1
1
1
1
1
1
1
1
1
1
1
1
1
1
1
1
1
1
1
1
1
1
1
1
1
1
1
1
1
1
1
1
1
1
1
1
1
1
1
1
1
1
1
1
1
1
1
1
1
1
1
1
1
1
1
1
1
1
1
1
1
1
1
1
1
1
1
1
1
1
1
1
1
1
1
1
1
1
1
1
1
1
1
1
1
1
1
1
1
1
1
1
1
1
1
1
1
1
1
1
1
1
1
1
1
1
1
1
1
1
1
1
1
1
1
1
1
1
1
1
1
1
1
1
1
1
1
1
1
1
1
1
1
1
1
1
1
1
1
1
1
1
1
1
1
1
1
1
1
1
1
1
1
1
1
1
1
1
1
1
1
1
1
1
1
1
1
1
1
1
1
1
1
1
1
1
1
1
1
1
1
1
1
1
1
1
1
1
1
1
1
1
1
1
1
1
1
1
1
1
1
1
1
1
1
1
1
1
1
1
1
1
1
1
1
1
1
1
1
1
1
1
1
1
1
1
1
1
1
1
1
1
1
1
1
1
1
1
1
1
1
1
1
1
1
1
1
1
1
1
1
1
1
1
1
1
1
1
1
1
1
1
1
1
1
1
1
1
1
1
1
1
1
1
1
1
1
1
1
1
1
1
1
1
1
1
1
1
1
1
1
1
1
1
1
1
1
1
1
1
1
1
1
1
1
1
1
1
1
1
1
1
1
1
1
1
1
1
1
1
1
1
1
1
1
1
1
1
1
1
1
1
1
1
1
1
1
1
1
1
1
1
1
1
1
1
1
1
1
1
1
1
1
1
1
1
1
1
1
1
1
1
1
1
1
1
1
1
1
1
1
1
1
1
1
1
1
1
1
1
1
1
1
1
1
1
1
1
1
1
1
1
1
1
1
1
1
1
1
1
1
1
1
1
1
1
1
1
1
1
1
1
1
1
1
1
1
1
1
1
1
1
1
1
1
1
1
1
1
1
1
1
1
1
1
1
1
1
1
1
1
1
1
1
1
1
1
1
1
1
1
1
1
1
1
1
1
1
1
1
1
1
1
1
1
1
1
1
1
1
1
1
1
1
1
1
1
1
1
1
1
1
1
1
1
1
1
1
1
1
1
1
1
1
1
1
1
1
1
1
1
1
1
1
1
1
1
1
1
1
1
1
1
1
1
1
1
1
1
1
1
1
1
1
1
1
1
1
1
1
1
1
1
1
1
1
1
1
1
1
1
1
1
1
1
1
1
1
1
1
1
1
1
1
1
1
1
1
1
1
1
1
1
1
1
1
1
1
1
1
1
1
1
1
1
1
1
1
1
1
1
1
1
1
1
1
1
1
1
1
1
1
1
1
1
1
1
1
1
1
1
1
1
1
1
1
1
1
1
1
1
1
1
1
1
1
1
1
1
1
1
1
1
1
1
1
1
1
1
1
1
1
1
1
1
1
1
1
1
1
1
1
1
1
1
1
1
1
1
1
1
1
1
1
1
1
1
1
1
1
1
1
1
1
1
1
1
1
1
1
1
1
1
1
1
1
1
1
1
1
1
1
1
1
1
1
1
1
1
1
1
1
1
1
1
1
1
1
1
1
1
1
1
1
1
1
1
1
1
1
1
1
1
1
1
1
1
1
1
1
1
1
1
1
1
1
1
1
1
1
1
1
1
1
1
1
1
1
1
1
1
1
1
1
1
1
1
1
1
1
1
1
1
1
1
1
1
1
1
1
1
1
1
1
1
1
1
1
1
1
1
1
1
1
1
1
1
1
1
1
1
1
1
1
1
1
1
1
1
1
1
1
1
1
1
1
1
1
1
1
1
1
1
1
1
1
1
1
1
1
1
1
1
1
1
1
1
1
1
1
1
1
1
1
1
1
1
1
1
1
1
1
1
1
1
1
1
1
1
1
1
1
1
1
1
1
1
1
1
1
1
1
1
1
1
1
1
1
1
1
1
1
1
1
1
1
1
1
1
1
1
1
1
1
1
1
1
1
1
1
1
1
1
1
1
1
1
1
1
1
1
1
1
1
1
1
1
1
1
1
1
1
1
1
1
1
1
1
1
1
1
1
1
1
1
1
1
1
1
1
1
1
1
1
1
1
1
1
1
1
1
1
1
1
1
1
1
1
1
1
1
1
1
1
1
1
1
1
1
1
1
1
1
1
1
1
1
1
1
1
1
1
1
1
1
1
1
1
1
1
1
1
1
1
1
1
1
1
1
1
1
1
1
1
1
1
1
1
1
1
1
1
1
1
1
1
1
1
1
1
1
1
1
1
1
1
1
1
1
1
1
1
1
1
1
1
1
1
1
1
1
1
1
1
1
1
1
1
1
1
1
1
1
1
1
1
1
1
1
1
1
1
1
1
1
1
1
1
1
1
1
1
1
1
1
1
1
1
1
1
1
1
1
1
1
1
1
1
1
1
1
1
1
1
1
1
1
1
1
1
1
1
1
1
1
1
1
1
1
1
1
1
1
1
1
1
1
1
1
1
1
1
1
1
1
1
1
1
1
1
1
1
1
1
1
1
1
1
1
1
1
1
1
1
1
1
1
1
1
1
1
1
1
1
1
1
1
1
1
1
1
1
1
1
1
1
1
1
1
1
1
1
1
1
1
1
1
1
1
1
1
1
1
1
1
1
1
1
1
1
1
1
1
1
1
1
1
1
1
1
1
1
1
1
1
1
1
1
1
1
1
1
1
1
1
1
1
1
1
1
1
1
1
1
1
1
1
1
1
1
1
1
1
1
1
1
1
1
1
1
1
1
1
1
1
1
1
1
1
1
1
1
1
1
1
1
1
1
1
1
1
1
1
1
1
1
1
1
1
1
1
1
1
1
1
1
1
1
1
1
1
1
1
1
1
1
1
1
1
1
1
1
1
1
1
1
1
1
1
1
1
1
1
1
1
1
1
1
1
1
1
1
1
1
1
1
1
1
1
1
1
1
1
1
1
1
1
1
1
1
1
1
1
1
1
1
1
1
1
1
1
1
1
1
1
1
1
1
1
1
1
1
1
1
1
1
1
1
1
1
1
1
1
1
1
1
1
1
1
1
1
1
1
1
1
1
1
1
1
1
1
1
1
1
1
1
1
1
1
1
1
1
1
1
1
1
1
1
1
1
1
1
1
1
1
1
1
1
1
1
1
1
1
1
1
1
1
1
1
1
1
1
1
1
1
1
1
1
1
1
1
1
1
1
1
1
1
1
1
1
1
1
1
1
1
1
1
1
1
1
1
1
1
1
1
1
1
1
1
1
1
1
1
1
1
1
1
1
1
1
1
1
1
1
1
1
1
1
1
1
1
1
1
1
1
1
1
1
1
1
1
1
1
1
1
1
1
1
1
1
1
1
1
1
1
1
1
1
1
1
1
1
1
1
1
1
1
1
1
1
1
1
1
1
1
1
1
1
1
1
1
1
1
1
1
1
1
1
1
1
1
1
1
1
1
1
1
1
1
1
1
1
1
1
1
1
1
1
1
1
1
1
1
1
1
1
1
1
1
1
1
1
1
1
1
1
1
1
1
1
1
1
1
1
1
1
1
1
1
1
1
1
1
1
1
1
1
1
1
1
1
1
1
1
1
1
1
1
1
1
1
1
1
1
1
1
1
1
1
1
1
1
1
1
1
1
1
1
1
1
1
1
1
1
1
1
1
1
1
1
1
1
1
1
1
1
1
1
1
1
1
1
1
1
1
1
1
1
1
1
1
1
1
1
1
1
1
1
1
1
1
1
1
1
1
1
1
1
1
1
1
1
1
1
1
1
1
1
1
1
1
1
1
1
1
1
1
1
1
1
1
1
1
1
1
1
1
1
1
1
1
1
1
1
1
1
1
1
1
1
1
1
1
1
1
1
1
1
1
1
1
1
1
1
1
1
1
1
1
1
1
1
1
1
1
1
1
1
1
1
1
1
1
1
1
1
1
1
1
1
1
1
1
1
1
1
1
1
1
1
1
1
1
1
1
1
1
1
1
1
1
1
1
1
1
1
1
1
1
1
1
1
1
1
1
1
1
1
1
1
1
1
1
1
1
1
1
1
1
1
1
1
1
1
1
1
1
1
1
1
1
1
1
1
1
1
1
1
1
1
1
1
1
1
1
1
1
1
1
1
1
1
1
1
1
1
1
1
1
1
1
1
1
1
1
1
1
1
1
1
1
1
1
1
1
1
1
1
1
1
1
1
1
1
1
1
1
1
1
1
1
1
1
1
1
1
1
1
1
1
1
1
1
1
1
1
1
1
1
1
1
1
1
1
1
1
1
1
1
1
1
1
1
1
1
1
1
1
1
1
1
1
1
1
1
1
1
1
1
1
1
1
1
1
1
1
1
1
1
1
1
1
1
1
1
1
1
1
1
1
1
1
1
1
1
1
1
1
1
1
1
1
